<svg width="1440" height="1319" viewBox="0 0 1440 1319" fill="none"
    xmlns="http://www.w3.org/2000/svg">
    <g opacity="0.9">
        <path opacity="0.7" d="M1355.76 -111.625C1305.76 -105.266 1252.84 -90.697 1202.72 -69.5131C1152.48 -48.2704 1104.77 -20.2822 1064.76 11.4657C1023.85 43.9473 988.548 82.2123 962.633 122.14C938.217 159.705 922.026 198.963 915.845 235.64C914.142 245.702 913.121 255.708 912.518 265.602C912.413 267.445 912.307 269.289 912.225 271.117L912.222 271.135C911.868 278.35 911.715 285.5 911.616 292.582L911.606 292.636C911.588 295.568 911.557 298.444 911.545 301.339C911.542 301.358 911.535 301.394 911.553 301.415C911.539 302.843 911.526 304.272 911.515 305.682C911.504 309.061 911.469 312.456 911.431 315.868C911.427 315.886 911.404 315.902 911.421 315.923C911.413 317.686 911.402 319.468 911.368 321.265L911.355 321.338C911.276 326.955 911.149 332.603 910.889 338.29C910.868 338.287 910.886 338.308 910.886 338.308C910.834 339.713 910.762 341.115 910.687 342.535C910.367 348.696 909.873 354.89 909.164 361.111L909.161 361.129C909.035 362.356 908.888 363.581 908.717 364.821L908.714 364.84C907.91 371.252 906.849 377.686 905.444 384.166C905.376 384.566 905.283 384.981 905.194 385.377C905.029 386.098 904.863 386.819 904.698 387.54C903.205 393.916 901.269 400.307 898.945 406.628C898.546 407.726 898.124 408.84 897.685 409.933C895.412 415.833 892.769 421.684 889.83 427.421C889.284 428.518 888.698 429.61 888.114 430.683C885.304 435.917 882.239 441.043 878.925 446.024C878.212 447.118 877.478 448.209 876.706 449.276L876.703 449.294C873.617 453.804 870.283 458.169 866.782 462.401C866.146 463.17 865.509 463.939 864.852 464.706C864.564 465.039 864.275 465.372 863.987 465.705C860.607 469.6 857.09 473.309 853.434 476.852C852.295 477.981 851.117 479.087 849.942 480.174C846.401 483.416 842.737 486.511 838.975 489.445C837.545 490.554 836.097 491.642 834.652 492.712C830.93 495.41 827.128 497.967 823.23 500.344C821.488 501.43 819.734 502.458 817.943 503.464C814.076 505.659 810.155 507.68 806.136 509.539C804.01 510.536 801.872 511.477 799.699 512.375C795.714 514.034 791.651 515.535 787.531 516.879C787.198 516.983 786.885 517.09 786.552 517.194C784.328 517.9 782.046 518.579 779.753 519.202C775.67 520.328 771.464 521.308 767.11 522.175C767.11 522.175 767.111 522.175 767.09 522.172C764.082 522.792 761.025 523.33 757.848 523.835C750.719 524.944 743.151 525.79 734.951 526.404C722.24 527.324 709.291 527.674 696.789 527.991C682.933 528.351 669.858 528.703 656.995 529.77C633.422 531.747 609.622 535.904 584.253 542.471C562.474 548.086 540.496 555.477 518.682 564.488C515.698 565.705 512.728 566.961 509.752 568.254C504.963 570.308 500.2 572.457 495.445 574.682C493.091 575.78 490.735 576.895 488.395 578.031C486.059 579.149 483.737 580.307 481.412 581.482C481.364 581.513 481.293 581.559 481.205 581.584C480.91 581.712 480.655 581.845 480.375 582.012C480.354 582.009 480.33 582.025 480.33 582.025C478.7 582.828 477.086 583.653 475.47 584.496C475.47 584.496 475.47 584.496 475.446 584.511C475.172 584.642 474.897 584.772 474.616 584.939C472.959 585.776 471.319 586.634 469.676 587.511C469.655 587.508 469.652 587.526 469.652 587.526C469.12 587.808 468.588 588.09 468.053 588.39C466.552 589.174 465.048 589.976 463.561 590.799C462.89 591.155 462.216 591.529 461.566 591.888C460.15 592.665 458.755 593.444 457.36 594.224C456.639 594.629 455.917 595.034 455.196 595.439C453.825 596.203 452.47 596.988 451.12 597.755C450.419 598.163 449.718 598.571 449.017 598.979C447.64 599.779 446.282 600.582 444.925 601.385C444.269 601.781 443.592 602.173 442.935 602.568C441.551 603.405 440.17 604.224 438.783 605.078C438.195 605.446 437.586 605.81 436.973 606.193C435.566 607.045 434.131 607.93 432.714 608.837C432.173 609.173 431.611 609.507 431.067 609.861C429.606 610.781 428.121 611.715 426.653 612.671C426.207 612.945 425.754 613.256 425.284 613.546C423.748 614.53 422.23 615.535 420.692 616.536C420.357 616.77 420.002 617.002 419.647 617.233C418.319 618.114 417.011 618.998 415.682 619.879C415.419 620.067 415.159 620.236 414.875 620.421C414.611 620.609 414.327 620.794 414.064 620.982C412.401 622.097 410.755 623.233 409.106 624.387C408.917 624.511 408.748 624.637 408.579 624.763C406.839 625.96 405.119 627.161 403.394 628.398C372.163 650.638 340.181 677.997 303.879 713.51C271.501 745.144 235.093 782.872 210.463 822.785C202.837 835.14 196.066 847.776 189.777 860.421C189.751 860.455 189.747 860.473 189.741 860.509C188.528 862.929 187.334 865.352 186.162 867.777C186.155 867.813 186.126 867.865 186.099 867.898C186 868.108 185.901 868.318 185.802 868.527L185.799 868.546C185.079 870.047 184.362 871.53 183.663 873.034C183.639 873.049 183.636 873.067 183.633 873.086L183.63 873.104C183.204 873.994 182.775 874.903 182.346 875.811C182.322 875.827 182.322 875.827 182.339 875.848C182.276 875.969 182.207 876.127 182.144 876.249C182.052 876.422 181.982 876.58 181.91 876.756C181.593 877.382 181.316 878.014 181.019 878.643L181.016 878.661C180.791 879.114 180.587 879.57 180.383 880.026C180.158 880.478 179.954 880.934 179.749 881.39C179.455 882.001 179.162 882.611 178.888 883.225L178.885 883.243C178.75 883.541 178.597 883.818 178.48 884.136C178.153 884.817 177.826 885.498 177.54 886.184C177.384 886.479 177.252 886.759 177.141 887.041L177.138 887.059C176.811 887.74 176.504 888.423 176.201 889.088C176.075 889.332 175.97 889.578 175.868 889.805C175.538 890.504 175.228 891.206 174.922 891.889C174.79 892.169 174.661 892.43 174.553 892.695C174.249 893.36 173.949 894.007 173.67 894.657C173.514 894.952 173.379 895.25 173.267 895.532C172.973 896.143 172.7 896.756 172.43 897.352C172.265 897.701 172.1 898.051 171.955 898.403C171.691 898.962 171.451 899.506 171.21 900.049C171.012 900.469 170.838 900.873 170.643 901.274L170.64 901.292C170.433 901.766 170.231 902.203 170.024 902.677C169.991 902.747 169.961 902.799 169.928 902.869C169.727 903.306 169.526 903.744 169.325 904.181C169.154 904.567 168.985 904.934 168.814 905.32C168.544 905.916 168.277 906.493 168.006 907.088C167.874 907.368 167.76 907.668 167.607 907.945C167.321 908.631 167.015 909.315 166.688 909.996C166.25 910.959 165.808 911.94 165.367 912.921C155.343 934.967 144.724 957.547 131.459 979.977C129.123 983.919 126.754 987.8 124.417 991.5C105.184 1022.01 79.9416 1051.14 53.2905 1073.53C22.3892 1099.49 -10.012 1116.17 -40.4088 1121.77" stroke="url(#paint0_linear_1894_27847)" stroke-width="2" stroke-miterlimit="10"/>
        <path opacity="0.7" d="M1386.96 -69.6806C1281.95 -52.1548 1172.47 -6.97317 1086.59 54.2626C1043.72 84.881 1005.71 120.529 976.659 157.375C949.538 191.694 929.985 227.377 920.088 260.581C913.594 282.398 910.891 303.569 908.264 324.046C905.359 346.639 902.362 370.017 894.234 393.638C885.537 418.613 869.462 443.326 848.951 463.25C826.57 485.004 799.589 500.222 768.751 508.502C753.726 512.49 737.474 514.922 716.021 516.418C708.424 516.944 700.633 517.369 693.095 517.792C673.949 518.835 654.122 519.917 636.491 522.796C614.727 526.348 593.927 531.885 569.067 540.74C517.552 558.992 465.18 588.619 417.607 626.442C388.606 649.52 361.087 676.714 331.948 705.51C325.466 711.92 318.909 718.395 312.238 724.929C304.05 732.949 295.772 740.883 287.772 748.539C258.783 776.334 231.382 802.596 211.58 829.298C192.979 854.398 179.19 879.638 164.575 906.384C152.557 928.409 140.117 951.175 124.497 974.464C121.956 978.245 119.401 981.988 116.898 985.551C79.091 1039.64 16.9124 1102.93 -44.2126 1118.36" stroke="url(#paint1_linear_1894_27847)" stroke-width="2" stroke-miterlimit="10"/>
        <path opacity="0.7" d="M1418.33 -28.6832C1310.89 -6.62683 1197.96 38.9413 1108.51 96.3596C1063.68 125.184 1022.96 158.293 990.73 192.108C960.982 223.208 938.029 255.401 924.345 285.174C915.435 304.642 910.138 323.274 905.006 341.314C899.165 361.898 893.622 381.352 883.203 401.77C872.029 423.648 854.205 444.935 832.962 461.752C809.6 480.255 781.978 493.061 750.896 499.795C732.919 503.691 714.387 505.302 697.051 506.441L691.734 506.789C665.613 508.501 638.581 510.258 615.968 515.801C590.369 522.078 571.245 530.707 553.855 539.029C507.558 561.155 461.094 593.7 419.482 633.155C403.359 648.445 387.717 665.471 371.168 683.491C355.27 700.781 338.852 718.651 320.494 736.671C303.402 753.448 285.9 768.684 268.95 783.4C247.866 801.743 227.947 819.053 212.511 836.348C190.931 860.533 174.671 885.335 157.468 911.591C145.278 930.193 132.661 949.444 117.35 969.692C114.684 973.219 111.972 976.776 109.191 980.362C88.9707 1006.55 17.8771 1093.71 -48.1785 1115.89" stroke="url(#paint2_linear_1894_27847)" stroke-width="2" stroke-miterlimit="10"/>
        <path opacity="0.7" d="M1450.61 13.4042C1340.27 40.0742 1223.79 85.9894 1131.08 139.391C1084.35 166.367 1040.86 196.898 1005.33 227.692C973.009 255.59 946.645 284.247 929.098 310.589C917.919 327.414 910.105 343.277 902.55 358.617C893.797 376.399 885.509 393.183 872.668 410.623C858.839 429.398 839.213 447.231 817.443 460.877C793.291 476.006 765.034 486.351 733.473 491.646C715.266 494.694 696.558 495.873 678.469 497.005C649.528 498.805 619.477 501.553 595.827 509.336C570.795 517.566 553.903 528.296 539.016 537.77C498.088 563.812 457.489 599.243 421.638 640.251C411.997 651.3 402.528 663.188 392.519 675.767C373.604 699.529 354.045 724.097 328.931 748.778C306.169 771.153 281.092 790.209 258.965 807.039C242.237 819.76 226.41 831.766 213.526 843.682C187.911 867.348 168.242 892.44 147.434 919.015C135.955 933.664 124.094 948.819 110.253 965.084L101.529 975.326C37.791 1050.19 -13.9187 1096.64 -52.1427 1113.42" stroke="url(#paint3_linear_1894_27847)" stroke-width="2" stroke-miterlimit="10"/>
        <path opacity="0.7" d="M1481.82 55.348C1367.93 86.9052 1248.1 133.154 1153.05 182.249C1104.58 207.34 1058.41 235.299 1019.5 263.078C984.811 287.726 955.066 312.867 933.488 335.775C920.642 349.47 910.707 362.143 901.096 374.396C889.011 389.79 877.596 404.345 861.8 419.168C850.041 430.205 830.052 446.177 801.704 459.602C777.021 471.289 748.19 479.191 715.986 483.077C701.463 484.831 686.828 485.643 671.363 486.51C667.584 486.711 663.781 486.927 659.954 487.158C622.844 489.349 595.352 494.347 575.892 502.442C552.628 512.109 538.782 523.907 525.381 535.318L524.518 536.057C488.997 566.294 454.343 604.612 424.253 646.864C418.454 655.039 412.738 663.597 406.705 672.651C388.495 699.964 367.875 730.911 337.98 760.358C310.821 787.107 279.94 807.213 252.706 824.946C239.09 833.804 226.232 842.168 215.281 850.454C183.502 874.45 159.499 900.339 131.706 930.29C122.981 939.709 113.949 949.439 104.047 959.832C100.996 963.027 97.9115 966.291 94.7943 969.626L83.9747 981.196C39.7239 1028.61 -15.3466 1087.6 -54.8732 1110.15" stroke="url(#paint4_linear_1894_27847)" stroke-width="2" stroke-miterlimit="10"/>
        <path opacity="0.7" d="M1513.03 97.2926C1391.73 135.02 1271.59 180.462 1174.72 225.223C1124.16 248.666 1076.56 273.359 1033.25 298.645C996.562 319.948 963.39 341.61 937.339 361.252C924.597 370.898 913.889 379.719 903.526 388.252C886.668 402.139 870.742 415.259 850.316 428.112C830.15 440.796 808.289 451.098 785.345 458.749C760.174 467.124 731.574 472.421 697.894 474.942C687.108 475.748 676.323 476.183 664.905 476.626C657.067 476.934 648.951 477.262 640.793 477.713C615.425 479.134 580.007 483.446 555.289 495.93C532.968 507.193 521.673 520.3 510.747 532.974L509.278 534.672C479.163 569.558 450.38 610.787 426.026 653.927C422.699 659.834 419.426 665.916 415.947 672.341C399.047 703.662 379.875 739.156 346.09 772.492C314.99 803.179 278.562 823.087 246.405 840.669C235.468 846.655 225.116 852.292 215.928 857.899C172.559 884.291 142.481 912.458 96.963 955.073L96.687 955.333C93.4307 958.371 90.1826 961.485 86.8778 964.683C69.6788 981.422 50.9451 1000.85 32.8266 1019.64C-1.98147 1055.76 -34.867 1089.86 -58.8379 1107.69" stroke="url(#paint5_linear_1894_27847)" stroke-width="2" stroke-miterlimit="10"/>
        <path opacity="0.7" d="M1544.23 139.237C1402.3 188.041 1288.58 230.183 1196.61 268.086C1145.91 289.042 1095.69 311.251 1047.3 334.057C1010.16 351.462 974.563 369.109 941.505 386.52C935.03 389.943 928.894 393.225 923.016 396.356C893.336 412.214 869.884 424.747 839.202 436.759C815.442 446.057 792.635 452.866 769.476 457.549C745.163 462.468 716.019 465.386 680.378 466.452C673.486 466.663 666.486 466.768 659.377 466.894C647.377 467.091 634.976 467.291 622.263 467.968C601.167 469.084 561.809 473.31 535.38 489.102C513.573 502.095 504.653 516.718 496.025 530.86L494.768 532.919C469.659 573.889 447.388 616.835 428.6 660.561C426.887 664.546 425.175 668.642 423.424 672.844C408.809 707.81 392.218 747.431 355.071 784.157C320.201 818.644 276.267 838.277 240.963 854.071C232.65 857.786 224.792 861.302 217.507 864.784C174.775 885.264 140.334 908.412 90.3912 950.222C87.0507 953.024 83.5733 956.012 80.0536 959.124C46.714 988.729 9.89832 1028.43 -19.7132 1060.34C-36.2983 1078.2 -50.617 1093.65 -61.569 1104.41" stroke="url(#paint6_linear_1894_27847)" stroke-width="2" stroke-miterlimit="10"/>
        <path opacity="0.7" d="M1575.6 180.234C1503.84 207.197 1427.5 234.702 1353.68 261.279C1306.37 278.317 1261.7 294.405 1218.38 310.284C1173.39 326.833 1130.27 342.999 1092.24 357.262L1057.89 370.122C1014.38 386.291 976.794 400.261 945.302 411.328C897.943 428.08 866.066 437.219 827.642 445.037C808.766 448.889 783.244 453.599 753.121 456.06C727.991 458.11 698.65 458.222 662.323 457.735L653.721 457.607C637.484 457.352 620.724 457.082 603.155 457.969C566.45 459.81 534.259 468.572 514.854 482.016C493.329 496.905 486.727 513.212 480.341 528.99L479.543 530.946C459.143 581.125 443.516 624.434 430.378 667.221L428.298 674.079C417.212 710.655 403.435 756.181 363.172 796.087C324.352 834.57 274.068 852.306 233.64 866.546C228.224 868.442 223.006 870.291 218.024 872.115C173.712 888.271 135.654 906.228 82.9262 945.714C79.3803 948.362 75.7384 951.202 72.0511 954.184C17.9578 998.077 -39.8944 1067.71 -65.5354 1101.95" stroke="url(#paint7_linear_1894_27847)" stroke-width="2" stroke-miterlimit="10"/>
        <path opacity="0.7" d="M1607.88 222.322C1507.57 263.043 1387.59 305.889 1241.05 353.304C1175.46 374.611 1121.4 391.349 1075.79 404.478C1025.27 418.901 984.141 429.453 950.018 436.688C897.473 447.925 858.844 451.623 817.034 453.745C794.453 454.888 767.366 455.931 737.715 454.997C722.019 454.516 704.596 453.302 686.171 452.048C673.177 451.147 659.764 450.228 645.239 449.42C625.359 448.306 605.781 447.399 585.037 448.379C547.982 450.133 514.447 460.195 495.325 475.285C473.965 492.137 469.75 510.222 465.656 527.728L461.742 544.423C452.684 583.034 442.386 626.792 433.21 673.949L432.867 675.705C425.166 715.482 415.585 765 372.387 807.872C329.267 850.662 269.51 866.173 225.869 877.504L219.682 879.11C175.699 890.6 131.649 903.956 76.6611 940.74C72.9073 943.247 69.0781 945.949 65.2714 948.765C6.92856 991.991 -49.7768 1063.59 -68.266 1098.68" stroke="url(#paint8_linear_1894_27847)" stroke-width="2" stroke-miterlimit="10"/>
        <path opacity="0.7" d="M1639.09 264.266C1502.06 323.874 1358.76 368.906 1262.69 396.17C1198.85 414.355 1140.57 429.069 1089.48 439.88C1038.13 450.655 992.463 458.051 953.765 461.884C898.681 467.408 854.644 466.054 805.463 462.305C779.688 460.346 751.672 457.958 721.327 453.811C712.814 452.655 703.998 451.31 694.667 449.896C674.671 446.872 652.01 443.435 627.157 441.006C609.547 439.284 588.508 437.68 565.927 438.691C527.91 440.388 493.852 451.525 474.812 468.455C453.539 487.371 451.709 508.235 450.114 526.624L450.03 527.485C447.951 551.397 445.36 576.708 442.619 603.502C440.1 628.265 437.479 653.869 435.034 680.535C431.461 719.917 426.57 773.863 380.596 819.535C332.671 867.136 262.331 878.939 220.305 885.985C174.033 893.745 126.175 901.794 69.3452 935.675C65.4105 938.008 61.3942 940.572 57.421 943.253C-0.461051 982.414 -58.6962 1055.8 -72.0669 1095.26" stroke="url(#paint9_linear_1894_27847)" stroke-width="2" stroke-miterlimit="10"/>
        <path opacity="0.7" d="M1670.29 306.21C1526.81 372.727 1381.17 415.24 1284.27 439.194C1219.17 455.345 1158.2 467.552 1103.08 475.49C1049.59 483.089 1000.57 487.07 957.419 487.302C893.844 487.704 841.214 479.743 793.833 471.109C768.41 466.468 737.965 460.674 704.836 452.867C699.839 451.698 694.728 450.458 689.514 449.204C665.854 443.48 639.021 436.998 608.964 432.87C585.405 429.63 565.631 428.492 546.724 429.29C516.585 430.556 476.47 439.812 454.208 461.908C432.982 482.992 433.857 505.878 434.646 526.077C436.359 570.097 436.522 618.014 436.684 668.754L436.752 687.631C436.981 734.053 433.451 787.308 388.723 831.827C342.299 878.014 274.603 889.082 220.809 893.557L213.359 894.177C163.865 898.243 117.104 902.079 61.8924 931.399C57.7733 933.579 53.5962 935.973 49.4529 938.54C-13.6193 977.506 -68.8087 1052.12 -76.0321 1092.8" stroke="url(#paint10_linear_1894_27847)" stroke-width="2" stroke-miterlimit="10"/>
        <path opacity="0.7" d="M1701.66 347.207C1584.57 404.75 1447.8 451.133 1306.12 481.328C1239.34 495.612 1175.72 505.32 1117.02 510.185C1061.2 514.749 1008.9 515.286 961.489 511.794C891.679 506.703 831.935 492.347 782.688 478.967C745.787 468.797 716.867 460.177 688.864 450.991L679.286 447.835C653.486 439.297 624.223 429.609 591.328 423.801C568.154 419.702 548.054 418.168 528.102 418.958C498.595 420.144 456.279 430.153 434.234 454.445C412.971 477.858 416.794 503.303 419.872 523.762C428.295 581.278 434.296 642 439.066 693.825C443.82 745.128 442.079 798.74 397.448 843.24C359.467 881.103 302.082 899.745 221.973 900.245C216.898 900.273 211.847 900.286 206.8 900.28C157.044 900.303 110.042 900.34 55.1596 926.228C50.8337 928.27 46.4736 930.511 42.2058 932.951C-19.6042 967.835 -77.4945 1042.45 -79.2622 1089.46" stroke="url(#paint11_linear_1894_27847)" stroke-width="2" stroke-miterlimit="10"/>
        <path opacity="0.7" d="M1732.87 389.152C1612.94 451.245 1472.87 497.947 1327.81 524.207C1259.22 536.655 1192.93 543.86 1130.82 545.588C1072.65 547.156 1017.01 544.253 965.47 536.976C904.207 528.364 844.373 513.128 771.443 487.544C736.024 475.032 703.751 462.698 672.764 449.849L665.519 446.839C637.172 435.03 607.865 422.814 573.515 415.476C551.006 410.593 529.999 408.604 509.276 409.381C478.981 410.533 435.839 421.239 414.042 447.664C392.865 473.3 399.809 501.505 404.883 522.088C417.292 573.138 429.164 631.488 441.19 700.48C449.968 750.747 452.645 808.389 406.005 854.965C356.224 904.651 279 910.747 222.981 907.125C215.992 906.673 209.036 906.152 202.058 905.629C153.639 901.963 103.557 898.187 48.2436 921.248C43.7617 923.101 39.2332 925.225 34.7795 927.527C-29.6899 960.692 -86.7713 1037.76 -82.6485 1086.1" stroke="url(#paint12_linear_1894_27847)" stroke-width="2" stroke-miterlimit="10"/>
        <path opacity="0.7" d="M1765.15 431.239C1642.6 497.826 1499.13 544.9 1350.26 567.363C1279.68 578.05 1210.69 582.728 1145.2 581.278C1084.64 579.892 1025.64 573.57 969.882 562.442C902.481 549.034 835.96 528.034 760.492 496.365C725.321 481.542 690.452 465.57 656.881 448.899L651.161 446.054C621.73 431.385 591.267 416.224 555.837 407.33C533.352 401.613 512.005 399.207 490.574 399.984C440.773 401.764 407.354 423.25 393.874 441.121C374.405 466.922 380.878 493.497 389.89 520.726C408.583 577.54 426.054 638.668 443.321 707.608C448.763 729.271 454.661 757.849 452.002 786.992C449.106 818.742 436.86 845.008 414.54 867.308C358.956 922.836 271.188 920.824 223.814 914.699C215.29 913.597 206.648 912.331 198.272 911.1C148.608 903.851 97.2394 896.356 41.0112 916.968C36.3429 918.666 31.6484 920.64 27.0052 922.806C-41.138 954.736 -96.3095 1032.91 -86.508 1083.65" stroke="url(#paint13_linear_1894_27847)" stroke-width="2" stroke-miterlimit="10"/>
        <path opacity="0.7" d="M1796.35 473.183C1671.5 544.099 1524.76 591.485 1372 610.223C1299.47 619.132 1227.83 621.291 1159.09 616.655C1096.17 612.369 1033.89 602.6 973.979 587.615C900.329 569.199 826.87 542.176 749.39 504.982C712.657 487.322 676.173 468.08 640.917 447.814L634.998 444.424C604.985 427.198 573.933 409.405 538.173 399.077C515.665 392.561 493.996 389.74 471.926 390.486C437.48 391.638 393.801 405.663 373.875 434.409C354.56 462.289 363.872 491.545 375.088 519.142C399.926 580.432 423.659 646.084 445.629 714.286C461.795 764.43 473.855 828.467 423.33 879.001C399.641 902.696 367.459 917.886 327.715 924.178C287.714 930.49 249.841 926.228 225.104 921.549C215.284 919.681 205.293 917.585 195.631 915.533C144.549 904.754 91.7404 893.614 34.3805 911.975C29.5506 913.52 24.6741 915.337 19.863 917.386C-51.8003 947.887 -105.007 1027.08 -89.6252 1080.33" stroke="url(#paint14_linear_1894_27847)" stroke-width="2" stroke-miterlimit="10"/>
        <path opacity="0.7" d="M1826 517.824C1636.98 629.783 1398.3 679.768 1171.18 654.937C984.526 634.547 805.245 567.344 623.076 449.485L617.886 446.136C568.923 414.413 518.318 381.598 451.333 383.716C415.991 384.825 371.513 399.718 351.893 430.485C332.712 460.531 344.525 491.394 358.27 520.436C389.735 586.868 419.203 655.373 445.905 724.066C484.513 823.449 455.35 868.651 430.033 893.996C377.917 946.216 289.534 947.74 224.225 931.734C213.263 929.044 202.064 926.025 191.272 923.079C138.646 908.805 84.2322 894.032 25.5008 910.345C-13.1963 921.089 -49.3522 946.954 -73.6714 981.328C-98.0111 1015.7 -105.786 1051.86 -95.0356 1080.57" stroke="url(#paint15_linear_1894_27847)" stroke-width="2" stroke-miterlimit="10"/>
    </g>
    <defs>
        <linearGradient id="paint0_linear_1894_27847" x1="459.127" y1="-189.833" x2="1168.14" y2="218.379" gradientUnits="userSpaceOnUse">
            <stop stop-color="#3B4359"/>
            <stop offset="0.489583" stop-color="#3B4359" stop-opacity="0"/>
            <stop offset="1" stop-color="#3B4359"/>
        </linearGradient>
        <linearGradient id="paint1_linear_1894_27847" x1="458.406" y1="-153.346" x2="1177.47" y2="281.132" gradientUnits="userSpaceOnUse">
            <stop stop-color="#3B4359"/>
            <stop offset="0.489583" stop-color="#3B4359" stop-opacity="0"/>
            <stop offset="1" stop-color="#3B4359"/>
        </linearGradient>
        <linearGradient id="paint2_linear_1894_27847" x1="457.837" y1="-117.751" x2="1185.09" y2="343.292" gradientUnits="userSpaceOnUse">
            <stop stop-color="#3B4359"/>
            <stop offset="0.489583" stop-color="#3B4359" stop-opacity="0"/>
            <stop offset="1" stop-color="#3B4359"/>
        </linearGradient>
        <linearGradient id="paint3_linear_1894_27847" x1="457.361" y1="-81.2029" x2="1190.6" y2="407.514" gradientUnits="userSpaceOnUse">
            <stop stop-color="#3B4359"/>
            <stop offset="0.489583" stop-color="#3B4359" stop-opacity="0"/>
            <stop offset="1" stop-color="#3B4359"/>
        </linearGradient>
        <linearGradient id="paint4_linear_1894_27847" x1="457.464" y1="-44.6064" x2="1193.18" y2="471.085" gradientUnits="userSpaceOnUse">
            <stop stop-color="#3B4359"/>
            <stop offset="0.489583" stop-color="#3B4359" stop-opacity="0"/>
            <stop offset="1" stop-color="#3B4359"/>
        </linearGradient>
        <linearGradient id="paint5_linear_1894_27847" x1="456.74" y1="-8.09151" x2="1192.8" y2="535.103" gradientUnits="userSpaceOnUse">
            <stop stop-color="#3B4359"/>
            <stop offset="0.489583" stop-color="#3B4359" stop-opacity="0"/>
            <stop offset="1" stop-color="#3B4359"/>
        </linearGradient>
        <linearGradient id="paint6_linear_1894_27847" x1="456.842" y1="28.5052" x2="1189.79" y2="598.678" gradientUnits="userSpaceOnUse">
            <stop stop-color="#3B4359"/>
            <stop offset="0.489583" stop-color="#3B4359" stop-opacity="0"/>
            <stop offset="1" stop-color="#3B4359"/>
        </linearGradient>
        <linearGradient id="paint7_linear_1894_27847" x1="456.273" y1="64.1004" x2="1184.04" y2="661.211" gradientUnits="userSpaceOnUse">
            <stop stop-color="#3B4359"/>
            <stop offset="0.489583" stop-color="#3B4359" stop-opacity="0"/>
            <stop offset="1" stop-color="#3B4359"/>
        </linearGradient>
        <linearGradient id="paint8_linear_1894_27847" x1="456.625" y1="100.731" x2="1175.31" y2="724.428" gradientUnits="userSpaceOnUse">
            <stop stop-color="#3B4359"/>
            <stop offset="0.489583" stop-color="#3B4359" stop-opacity="0"/>
            <stop offset="1" stop-color="#3B4359"/>
        </linearGradient>
        <linearGradient id="paint9_linear_1894_27847" x1="455.906" y1="137.218" x2="1162.15" y2="786.564" gradientUnits="userSpaceOnUse">
            <stop stop-color="#3B4359"/>
            <stop offset="0.489583" stop-color="#3B4359" stop-opacity="0"/>
            <stop offset="1" stop-color="#3B4359"/>
        </linearGradient>
        <linearGradient id="paint10_linear_1894_27847" x1="455.181" y1="173.732" x2="1146.05" y2="847.357" gradientUnits="userSpaceOnUse">
            <stop stop-color="#3B4359"/>
            <stop offset="0.489583" stop-color="#3B4359" stop-opacity="0"/>
            <stop offset="1" stop-color="#3B4359"/>
        </linearGradient>
        <linearGradient id="paint11_linear_1894_27847" x1="454.617" y1="209.3" x2="1126.71" y2="905.577" gradientUnits="userSpaceOnUse">
            <stop stop-color="#3B4359"/>
            <stop offset="0.489583" stop-color="#3B4359" stop-opacity="0"/>
            <stop offset="1" stop-color="#3B4359"/>
        </linearGradient>
        <linearGradient id="paint12_linear_1894_27847" x1="453.071" y1="245.676" x2="1102.41" y2="963.081" gradientUnits="userSpaceOnUse">
            <stop stop-color="#3B4359"/>
            <stop offset="0.489583" stop-color="#3B4359" stop-opacity="0"/>
            <stop offset="1" stop-color="#3B4359"/>
        </linearGradient>
        <linearGradient id="paint13_linear_1894_27847" x1="450.948" y1="282.004" x2="1074.69" y2="1018.88" gradientUnits="userSpaceOnUse">
            <stop stop-color="#3B4359"/>
            <stop offset="0.489583" stop-color="#3B4359" stop-opacity="0"/>
            <stop offset="1" stop-color="#3B4359"/>
        </linearGradient>
        <linearGradient id="paint14_linear_1894_27847" x1="448.579" y1="318.271" x2="1042.61" y2="1071.05" gradientUnits="userSpaceOnUse">
            <stop stop-color="#3B4359"/>
            <stop offset="0.489583" stop-color="#3B4359" stop-opacity="0"/>
            <stop offset="1" stop-color="#3B4359"/>
        </linearGradient>
        <linearGradient id="paint15_linear_1894_27847" x1="443.825" y1="357.152" x2="1005.63" y2="1122.77" gradientUnits="userSpaceOnUse">
            <stop stop-color="#3B4359"/>
            <stop offset="0.489583" stop-color="#3B4359" stop-opacity="0"/>
            <stop offset="1" stop-color="#3B4359"/>
        </linearGradient>
    </defs>
</svg>
