<svg width="1440" height="1410" viewBox="0 0 1440 1410" fill="none"
    xmlns="http://www.w3.org/2000/svg">
    <g opacity="0.2">
        <path opacity="0.7" d="M1501.91 -221.573C1444.91 -214.323 1384.58 -197.714 1327.44 -173.563C1270.17 -149.346 1215.77 -117.438 1170.16 -81.2442C1123.52 -44.2139 1083.27 -0.590267 1053.73 44.9292C1025.89 87.7546 1007.43 132.511 1000.39 174.323C998.445 185.795 997.281 197.202 996.594 208.481C996.474 210.583 996.353 212.684 996.26 214.768L996.256 214.789C995.853 223.015 995.679 231.165 995.565 239.239L995.555 239.302C995.533 242.644 995.499 245.922 995.484 249.224C995.481 249.244 995.473 249.286 995.493 249.31C995.478 250.938 995.463 252.567 995.451 254.174C995.438 258.027 995.398 261.896 995.354 265.787C995.35 265.808 995.323 265.825 995.343 265.849C995.334 267.86 995.322 269.891 995.282 271.94L995.268 272.022C995.177 278.426 995.033 284.866 994.736 291.348C994.713 291.345 994.733 291.369 994.733 291.369C994.674 292.971 994.592 294.569 994.506 296.188C994.141 303.212 993.578 310.273 992.77 317.365L992.767 317.386C992.623 318.785 992.455 320.182 992.261 321.596L992.257 321.616C991.34 328.927 990.131 336.261 988.529 343.649C988.451 344.105 988.346 344.578 988.245 345.03C988.056 345.852 987.867 346.674 987.678 347.496C985.977 354.764 983.769 362.05 981.12 369.256C980.666 370.508 980.184 371.778 979.683 373.024C977.092 379.751 974.079 386.421 970.729 392.961C970.107 394.212 969.438 395.457 968.773 396.681C965.569 402.648 962.074 408.491 958.296 414.17C957.483 415.417 956.647 416.66 955.767 417.877L955.763 417.897C952.245 423.039 948.444 428.016 944.453 432.84C943.727 433.717 943.002 434.594 942.253 435.468C941.924 435.848 941.595 436.227 941.266 436.607C937.413 441.047 933.404 445.276 929.236 449.314C927.937 450.602 926.594 451.863 925.255 453.102C921.217 456.798 917.041 460.327 912.752 463.672C911.121 464.936 909.47 466.176 907.823 467.396C903.58 470.472 899.245 473.387 894.802 476.096C892.815 477.334 890.817 478.507 888.774 479.653C884.366 482.156 879.896 484.46 875.314 486.579C872.89 487.716 870.453 488.788 867.976 489.813C863.433 491.704 858.801 493.415 854.104 494.947C853.724 495.066 853.367 495.188 852.987 495.306C850.452 496.111 847.85 496.886 845.236 497.595C840.581 498.879 835.787 499.996 830.823 500.985C830.823 500.985 830.823 500.985 830.8 500.982C827.371 501.688 823.886 502.302 820.263 502.877C812.136 504.142 803.509 505.107 794.16 505.806C779.669 506.855 764.906 507.255 750.653 507.616C734.858 508.026 719.951 508.427 705.288 509.644C678.413 511.898 651.28 516.637 622.358 524.123C597.529 530.525 572.474 538.951 547.605 549.223C544.203 550.611 540.817 552.043 537.424 553.517C531.965 555.858 526.535 558.309 521.114 560.846C518.431 562.096 515.744 563.368 513.076 564.663C510.413 565.938 507.766 567.257 505.115 568.597C505.061 568.632 504.98 568.685 504.879 568.714C504.543 568.86 504.253 569.011 503.933 569.201C503.909 569.198 503.882 569.216 503.882 569.216C502.023 570.132 500.184 571.072 498.341 572.033C498.341 572.033 498.341 572.033 498.314 572.051C498.001 572.2 497.688 572.348 497.368 572.538C495.478 573.493 493.609 574.471 491.736 575.47C491.712 575.467 491.709 575.488 491.709 575.488C491.102 575.809 490.496 576.131 489.886 576.473C488.174 577.366 486.46 578.281 484.765 579.219C484 579.625 483.232 580.052 482.49 580.461C480.876 581.346 479.286 582.235 477.695 583.124C476.873 583.585 476.051 584.047 475.228 584.509C473.665 585.38 472.121 586.275 470.581 587.149C469.782 587.614 468.983 588.079 468.184 588.544C466.614 589.457 465.066 590.372 463.519 591.288C462.771 591.739 461.999 592.186 461.25 592.637C459.673 593.591 458.098 594.524 456.517 595.498C455.846 595.917 455.151 596.332 454.453 596.768C452.849 597.74 451.213 598.75 449.598 599.783C448.981 600.166 448.34 600.547 447.72 600.951C446.054 601.999 444.361 603.064 442.688 604.154C442.179 604.467 441.663 604.821 441.127 605.152C439.376 606.274 437.646 607.419 435.892 608.561C435.511 608.828 435.106 609.091 434.701 609.355C433.187 610.359 431.696 611.367 430.181 612.372C429.881 612.586 429.584 612.779 429.26 612.99C428.96 613.204 428.636 613.415 428.336 613.629C426.44 614.9 424.564 616.195 422.684 617.511C422.468 617.652 422.276 617.795 422.083 617.939C420.099 619.305 418.139 620.673 416.171 622.083C380.567 647.438 344.106 678.629 302.721 719.114C265.808 755.179 224.301 798.19 196.223 843.693C187.528 857.778 179.809 872.184 172.64 886.6C172.61 886.638 172.606 886.659 172.599 886.7C171.215 889.459 169.855 892.22 168.518 894.985C168.511 895.026 168.477 895.085 168.446 895.124C168.334 895.363 168.221 895.602 168.108 895.841L168.104 895.861C167.284 897.573 166.466 899.264 165.669 900.978C165.642 900.996 165.639 901.017 165.635 901.037L165.632 901.058C165.146 902.073 164.657 903.109 164.168 904.145C164.141 904.162 164.141 904.162 164.16 904.186C164.089 904.325 164.01 904.505 163.938 904.643C163.833 904.841 163.754 905.021 163.671 905.222C163.309 905.936 162.994 906.656 162.655 907.373L162.652 907.394C162.396 907.91 162.163 908.43 161.93 908.949C161.674 909.465 161.441 909.985 161.208 910.504C160.873 911.201 160.538 911.897 160.226 912.597L160.222 912.617C160.068 912.957 159.894 913.272 159.76 913.635C159.388 914.412 159.015 915.188 158.689 915.97C158.511 916.306 158.361 916.625 158.234 916.947L158.23 916.968C157.858 917.744 157.508 918.523 157.163 919.281C157.019 919.558 156.899 919.839 156.783 920.099C156.406 920.895 156.054 921.695 155.704 922.474C155.554 922.793 155.407 923.091 155.283 923.392C154.938 924.151 154.595 924.889 154.277 925.63C154.099 925.966 153.945 926.305 153.818 926.627C153.483 927.323 153.171 928.023 152.863 928.702C152.675 929.1 152.487 929.499 152.322 929.9C152.021 930.537 151.747 931.157 151.473 931.777C151.247 932.255 151.049 932.716 150.826 933.173L150.823 933.194C150.586 933.734 150.357 934.233 150.121 934.773C150.083 934.852 150.049 934.911 150.011 934.991C149.782 935.49 149.553 935.989 149.323 936.487C149.128 936.927 148.936 937.346 148.741 937.786C148.433 938.465 148.129 939.123 147.82 939.802C147.67 940.121 147.539 940.463 147.365 940.779C147.04 941.561 146.69 942.34 146.317 943.116C145.818 944.214 145.314 945.333 144.811 946.451C133.384 971.585 121.277 997.327 106.155 1022.9C103.491 1027.39 100.791 1031.82 98.1265 1036.03C76.1998 1070.82 47.423 1104.03 17.0396 1129.56C-18.1892 1159.15 -55.1278 1178.17 -89.7814 1184.55" stroke="url(#paint0_linear_1891_14074)" stroke-width="2" stroke-miterlimit="10"/>
        <path opacity="0.7" d="M1537.48 -173.754C1417.76 -153.774 1292.95 -102.265 1195.04 -32.4542C1146.17 2.45203 1102.83 43.0926 1069.72 85.0984C1038.8 124.223 1016.51 164.903 1005.22 202.758C997.82 227.629 994.738 251.766 991.744 275.11C988.433 300.866 985.015 327.519 975.749 354.448C965.834 382.92 947.509 411.094 924.125 433.809C898.609 458.609 867.85 475.958 832.694 485.397C815.564 489.944 797.037 492.717 772.579 494.422C763.918 495.021 755.036 495.506 746.443 495.988C724.615 497.177 702.012 498.41 681.911 501.693C657.1 505.742 633.387 512.054 605.046 522.15C546.316 542.957 486.61 576.733 432.375 619.854C399.313 646.164 367.94 677.165 334.72 709.994C327.33 717.302 319.856 724.684 312.25 732.132C302.915 741.276 293.478 750.321 284.358 759.049C251.31 790.736 220.071 820.677 197.496 851.118C176.29 879.732 160.57 908.508 143.909 938.999C130.207 964.108 116.026 990.063 98.2176 1016.61C95.3211 1020.92 92.4082 1025.19 89.5543 1029.25C46.4531 1090.92 -24.433 1163.07 -94.118 1180.66" stroke="url(#paint1_linear_1891_14074)" stroke-width="2" stroke-miterlimit="10"/>
        <path opacity="0.7" d="M1573.24 -127.016C1450.75 -101.871 1322.01 -49.9211 1220.04 15.5381C1168.92 48.3985 1122.5 86.1442 1085.76 124.695C1051.84 160.15 1025.68 196.852 1010.08 230.794C999.919 252.988 993.881 274.229 988.03 294.796C981.37 318.263 975.052 340.441 963.174 363.718C950.435 388.66 930.115 412.928 905.897 432.1C879.264 453.194 847.773 467.794 812.338 475.47C791.844 479.912 770.717 481.749 750.953 483.047L744.891 483.444C715.112 485.396 684.294 487.399 658.515 493.718C629.331 500.875 607.528 510.712 587.704 520.199C534.923 545.424 481.952 582.527 434.513 627.506C416.132 644.938 398.299 664.349 379.433 684.892C361.309 704.603 342.591 724.976 321.663 745.519C302.176 764.646 282.224 782.016 262.9 798.792C238.863 819.703 216.156 839.437 198.558 859.155C173.955 886.726 155.418 915.002 135.806 944.934C121.909 966.142 107.525 988.089 90.07 1011.17C87.0312 1015.19 83.9384 1019.25 80.7681 1023.34C57.7165 1053.19 -23.3331 1152.56 -98.6391 1177.84" stroke="url(#paint2_linear_1891_14074)" stroke-width="2" stroke-miterlimit="10"/>
        <path opacity="0.7" d="M1610.04 -79.0344C1484.25 -48.6295 1351.45 3.71569 1245.76 64.5956C1192.48 95.3493 1142.91 130.155 1102.4 165.263C1065.56 197.068 1035.5 229.737 1015.49 259.768C1002.75 278.95 993.843 297.034 985.229 314.523C975.25 334.794 965.802 353.929 951.162 373.811C935.397 395.215 913.023 415.546 888.204 431.102C860.67 448.35 828.455 460.144 792.474 466.181C771.717 469.656 750.39 471 729.767 472.29C696.774 474.342 662.515 477.475 635.553 486.348C607.015 495.731 587.758 507.963 570.785 518.764C524.127 548.453 477.841 588.846 436.971 635.597C425.979 648.192 415.184 661.746 403.773 676.086C382.209 703.176 359.912 731.185 331.28 759.321C305.331 784.83 276.742 806.554 251.516 825.742C232.445 840.244 214.403 853.931 199.714 867.516C170.512 894.496 148.088 923.102 124.366 953.398C111.28 970.099 97.7577 987.376 81.9788 1005.92L72.0331 1017.6C-0.631035 1102.95 -59.5821 1155.9 -103.159 1175.03" stroke="url(#paint3_linear_1891_14074)" stroke-width="2" stroke-miterlimit="10"/>
        <path opacity="0.7" d="M1645.62 -31.2162C1515.78 4.76026 1379.17 57.4855 1270.8 113.456C1215.56 142.061 1162.91 173.936 1118.56 205.605C1079.01 233.704 1045.1 262.365 1020.5 288.482C1005.86 304.095 994.528 318.543 983.571 332.511C969.794 350.061 956.78 366.654 938.773 383.554C925.367 396.136 902.578 414.345 870.261 429.65C842.121 442.974 809.253 451.982 772.539 456.412C755.982 458.412 739.298 459.337 721.667 460.326C717.358 460.555 713.023 460.801 708.66 461.065C666.354 463.562 635.011 469.26 612.826 478.489C586.304 489.51 570.519 502.96 555.242 515.969L554.258 516.811C513.763 551.283 474.255 594.967 439.951 643.136C433.341 652.456 426.823 662.212 419.945 672.534C399.186 703.672 375.678 738.953 341.597 772.524C310.634 803.019 275.429 825.94 244.38 846.157C228.858 856.255 214.2 865.791 201.715 875.236C165.486 902.593 138.121 932.108 106.436 966.254C96.4887 976.991 86.1926 988.084 74.9034 999.933C71.4249 1003.57 67.9088 1007.3 64.3551 1011.1L52.0203 1024.29C1.57254 1078.34 -61.21 1145.59 -106.272 1171.3" stroke="url(#paint4_linear_1891_14074)" stroke-width="2" stroke-miterlimit="10"/>
        <path opacity="0.7" d="M1681.2 16.6018C1542.91 59.6129 1405.95 111.418 1295.52 162.448C1237.87 189.174 1183.6 217.325 1134.23 246.151C1092.41 270.438 1054.59 295.134 1024.89 317.527C1010.36 328.523 998.157 338.579 986.342 348.307C967.124 364.139 948.967 379.096 925.68 393.749C902.691 408.209 877.768 419.955 851.612 428.677C822.915 438.224 790.31 444.264 751.914 447.137C739.617 448.056 727.322 448.552 714.305 449.057C705.369 449.409 696.117 449.782 686.816 450.297C657.895 451.916 617.518 456.833 589.338 471.065C563.891 483.905 551.015 498.848 538.558 513.296L536.883 515.232C502.551 555.003 469.737 602.006 441.973 651.188C438.179 657.922 434.448 664.855 430.482 672.181C411.216 707.888 389.359 748.352 350.843 786.357C315.388 821.341 273.858 844.037 237.197 864.081C224.729 870.905 212.928 877.332 202.452 883.724C153.011 913.812 118.72 945.923 66.8277 994.506L66.513 994.803C62.8008 998.266 59.0978 1001.82 55.3302 1005.46C35.7226 1024.55 14.3655 1046.7 -6.29035 1068.12C-45.973 1109.29 -83.4639 1148.17 -110.792 1168.49" stroke="url(#paint5_linear_1891_14074)" stroke-width="2" stroke-miterlimit="10"/>
        <path opacity="0.7" d="M1716.77 64.42C1554.96 120.059 1425.32 168.102 1320.47 211.313C1262.67 235.204 1205.42 260.523 1150.25 286.523C1107.91 306.365 1067.33 326.483 1029.64 346.333C1022.26 350.235 1015.26 353.977 1008.56 357.546C974.725 375.625 947.989 389.913 913.011 403.607C885.923 414.208 859.921 421.97 833.52 427.309C805.802 432.916 772.576 436.243 731.945 437.459C724.087 437.7 716.107 437.818 708.002 437.963C694.322 438.188 680.185 438.415 665.691 439.187C641.641 440.46 596.771 445.278 566.641 463.28C541.78 478.093 531.611 494.764 521.774 510.886L520.341 513.234C491.716 559.941 466.326 608.901 444.907 658.751C442.954 663.293 441.003 667.963 439.007 672.754C422.344 712.617 403.43 757.786 361.081 799.655C321.328 838.972 271.242 861.355 230.993 879.36C221.516 883.595 212.557 887.604 204.253 891.573C155.536 914.922 116.272 941.311 59.3354 988.976C55.5272 992.17 51.5628 995.576 47.5501 999.124C9.54168 1032.88 -32.4297 1078.14 -66.188 1114.51C-85.0957 1134.88 -101.42 1152.49 -113.905 1164.76" stroke="url(#paint6_linear_1891_14074)" stroke-width="2" stroke-miterlimit="10"/>
        <path opacity="0.7" d="M1752.53 111.158C1670.72 141.898 1583.69 173.254 1499.53 203.553C1445.61 222.977 1394.67 241.318 1345.29 259.421C1294 278.287 1244.84 296.718 1201.48 312.978L1162.33 327.639C1112.72 346.072 1069.87 361.998 1033.97 374.615C979.978 393.713 943.637 404.132 899.832 413.045C878.313 417.436 849.216 422.806 814.875 425.611C786.226 427.948 752.776 428.076 711.362 427.521L701.555 427.376C683.044 427.085 663.937 426.777 643.908 427.787C602.063 429.886 565.364 439.876 543.241 455.203C518.702 472.177 511.175 490.767 503.895 508.755L502.986 510.985C479.728 568.191 461.913 617.565 446.934 666.344L444.563 674.162C431.925 715.86 416.219 767.762 370.317 813.257C326.061 857.128 268.736 877.348 222.645 893.582C216.471 895.744 210.523 897.852 204.843 899.932C154.325 918.35 110.938 938.822 50.8257 983.837C46.7832 986.856 42.6314 990.093 38.4277 993.493C-23.2408 1043.53 -89.1947 1122.91 -118.427 1161.95" stroke="url(#paint7_linear_1891_14074)" stroke-width="2" stroke-miterlimit="10"/>
        <path opacity="0.7" d="M1789.33 159.14C1674.98 205.564 1538.19 254.411 1371.13 308.466C1296.36 332.756 1234.73 351.838 1182.74 366.806C1125.14 383.249 1078.25 395.278 1039.35 403.526C979.442 416.337 935.403 420.553 887.739 422.972C861.996 424.276 831.115 425.464 797.312 424.399C779.417 423.85 759.555 422.467 738.55 421.037C723.735 420.01 708.445 418.963 691.885 418.042C669.221 416.771 646.901 415.737 623.252 416.854C581.008 418.854 542.777 430.325 520.977 447.528C496.625 466.741 491.821 487.358 487.153 507.316L482.691 526.349C472.365 570.367 460.625 620.252 450.163 674.014L449.772 676.016C440.993 721.363 430.07 777.816 380.823 826.691C331.664 875.473 263.539 893.157 213.787 906.074L206.733 907.906C156.591 921.004 106.371 936.231 43.6833 978.166C39.4038 981.024 35.0384 984.104 30.6985 987.314C-35.8146 1036.59 -100.461 1118.22 -121.539 1158.22" stroke="url(#paint8_linear_1891_14074)" stroke-width="2" stroke-miterlimit="10"/>
        <path opacity="0.7" d="M1824.91 206.958C1668.69 274.914 1505.32 326.252 1395.8 357.334C1323.02 378.066 1256.58 394.841 1198.34 407.165C1139.79 419.449 1087.73 427.88 1043.62 432.251C980.819 438.549 930.615 437.005 874.547 432.731C845.162 430.498 813.222 427.775 778.628 423.047C768.923 421.729 758.872 420.196 748.234 418.584C725.438 415.136 699.604 411.219 671.271 408.449C651.194 406.486 627.209 404.657 601.465 405.81C558.125 407.745 519.297 420.441 497.591 439.743C473.339 461.307 471.253 485.093 469.435 506.057L469.338 507.039C466.969 534.3 464.014 563.155 460.89 593.701C458.018 621.932 455.03 651.121 452.242 681.522C448.169 726.419 442.594 787.919 390.181 839.987C335.545 894.255 255.354 907.711 207.442 915.743C154.69 924.59 100.131 933.766 35.3424 972.392C30.8567 975.052 26.278 977.974 21.7483 981.031C-44.2396 1025.68 -110.63 1109.34 -125.873 1154.33" stroke="url(#paint9_linear_1891_14074)" stroke-width="2" stroke-miterlimit="10"/>
        <path opacity="0.7" d="M1860.49 254.776C1696.91 330.608 1530.87 379.075 1420.4 406.383C1346.19 424.796 1276.68 438.713 1213.84 447.763C1152.86 456.426 1096.98 460.964 1047.78 461.229C975.304 461.686 915.303 452.611 861.288 442.768C832.304 437.477 797.596 430.871 759.828 421.971C754.131 420.639 748.304 419.225 742.36 417.796C715.387 411.27 684.796 403.88 650.53 399.174C623.672 395.48 601.128 394.183 579.574 395.093C545.214 396.536 499.481 407.088 474.101 432.279C449.903 456.315 450.901 482.405 451.799 505.434C453.753 555.618 453.938 610.246 454.123 668.091L454.201 689.612C454.462 742.535 450.438 803.248 399.446 854.001C346.521 906.656 269.344 919.274 208.017 924.376L199.524 925.083C143.099 929.718 89.7888 934.091 26.8457 967.517C22.1498 970.002 17.3878 972.732 12.6642 975.658C-59.2406 1020.08 -122.159 1105.15 -130.394 1151.52" stroke="url(#paint10_linear_1891_14074)" stroke-width="2" stroke-miterlimit="10"/>
        <path opacity="0.7" d="M1896.25 301.515C1762.77 367.116 1606.83 419.994 1445.31 454.418C1369.18 470.702 1296.66 481.77 1229.73 487.317C1166.1 492.52 1106.47 493.131 1052.42 489.151C972.837 483.346 904.725 466.981 848.583 451.727C806.514 440.132 773.544 430.305 741.619 419.833L730.7 416.235C701.287 406.501 667.926 395.456 630.425 388.835C604.005 384.162 581.09 382.413 558.344 383.314C524.705 384.666 476.463 396.076 451.331 423.771C427.091 450.462 431.448 479.47 434.957 502.795C444.559 568.365 451.401 637.59 456.839 696.673C462.26 755.16 460.274 816.28 409.394 867.012C366.093 910.178 300.672 931.43 209.345 932.001C203.559 932.033 197.801 932.047 192.046 932.041C135.323 932.066 81.739 932.108 19.1705 961.622C14.2388 963.95 9.26813 966.505 4.40262 969.286C-66.0632 1009.06 -132.061 1094.12 -134.076 1147.71" stroke="url(#paint11_linear_1891_14074)" stroke-width="2" stroke-miterlimit="10"/>
        <path opacity="0.7" d="M1931.82 349.333C1795.1 420.122 1635.42 473.365 1470.05 503.302C1391.85 517.493 1316.28 525.707 1245.47 527.677C1179.15 529.465 1115.72 526.155 1056.96 517.859C987.119 508.04 918.906 490.671 835.764 461.505C795.384 447.24 758.591 433.179 723.265 418.531L715.005 415.099C682.689 401.636 649.278 387.71 610.117 379.344C584.456 373.778 560.508 371.509 536.882 372.396C502.345 373.708 453.161 385.914 428.312 416.04C404.168 445.266 412.085 477.42 417.87 500.886C432.016 559.085 445.552 625.607 459.262 704.26C469.269 761.567 472.321 827.28 419.149 880.38C362.397 937.023 274.359 943.973 210.495 939.843C202.526 939.329 194.596 938.735 186.642 938.138C131.442 933.959 74.3459 929.654 11.2864 955.945C6.17691 958.057 1.01423 960.479 -4.06317 963.103C-77.5609 1000.91 -142.636 1088.77 -137.936 1143.88" stroke="url(#paint12_linear_1891_14074)" stroke-width="2" stroke-miterlimit="10"/>
        <path opacity="0.7" d="M1968.62 397.314C1828.91 473.227 1665.35 526.892 1495.64 552.501C1415.17 564.685 1336.52 570.018 1261.86 568.364C1192.81 566.785 1125.55 559.577 1061.99 546.891C985.151 531.605 909.314 507.665 823.278 471.561C783.182 454.662 743.429 436.453 705.157 417.447L698.636 414.204C665.083 397.48 630.354 380.197 589.963 370.056C564.329 363.54 539.992 360.796 515.561 361.683C458.785 363.711 420.686 388.206 405.319 408.58C383.123 437.995 390.502 468.291 400.776 499.333C422.088 564.104 442.004 633.792 461.69 712.386C467.894 737.082 474.618 769.662 471.586 802.887C468.285 839.084 454.324 869.027 428.878 894.45C365.511 957.754 265.451 955.461 211.443 948.478C201.726 947.222 191.873 945.778 182.325 944.375C125.705 936.112 67.1429 927.567 3.0405 951.065C-2.28159 953.001 -7.63346 955.251 -12.927 957.72C-90.613 994.122 -153.511 1083.24 -142.337 1141.09" stroke="url(#paint13_linear_1891_14074)" stroke-width="2" stroke-miterlimit="10"/>
        <path opacity="0.7" d="M2004.2 445.133C1861.86 525.979 1694.58 580.001 1520.42 601.363C1437.74 611.52 1356.06 613.981 1277.7 608.696C1205.96 603.809 1134.96 592.672 1066.66 575.589C982.698 554.594 898.952 523.787 810.622 481.385C768.744 461.251 727.151 439.314 686.958 416.21L680.21 412.346C645.994 392.707 610.593 372.423 569.825 360.648C544.165 353.22 519.462 350.004 494.302 350.853C455.032 352.167 405.236 368.157 382.519 400.928C360.499 432.713 371.115 466.065 383.902 497.527C412.218 567.4 439.275 642.246 464.322 719.999C482.752 777.165 496.501 850.17 438.9 907.78C411.894 934.794 375.205 952.112 329.895 959.284C284.292 966.481 241.116 961.622 212.914 956.288C201.719 954.157 190.329 951.768 179.314 949.428C121.078 937.14 60.8742 924.44 -4.51831 945.372C-10.0246 947.134 -15.584 949.205 -21.0688 951.541C-102.768 986.314 -163.425 1076.59 -145.89 1137.3" stroke="url(#paint14_linear_1891_14074)" stroke-width="2" stroke-miterlimit="10"/>
        <path opacity="0.7" d="M2038 496.026C1822.51 623.663 1550.41 680.647 1291.48 652.339C1078.69 629.095 874.298 552.48 666.618 418.116L660.701 414.298C604.882 378.133 547.189 340.722 470.824 343.137C430.533 344.401 379.826 361.379 357.458 396.455C335.591 430.709 349.058 465.894 364.728 499.003C400.599 574.738 434.195 652.837 464.636 731.149C508.65 844.45 475.404 895.982 446.541 924.877C387.126 984.409 286.367 986.147 211.912 967.9C199.415 964.833 186.647 961.391 174.344 958.032C114.348 941.759 52.3142 924.918 -14.642 943.515C-58.7582 955.764 -99.9774 985.251 -127.702 1024.44C-155.451 1063.62 -164.314 1104.84 -152.058 1137.58" stroke="url(#paint15_linear_1891_14074)" stroke-width="2" stroke-miterlimit="10"/>
    </g>
    <defs>
        <linearGradient id="paint0_linear_1891_14074" x1="479.71" y1="-310.733" x2="1288.01" y2="154.645" gradientUnits="userSpaceOnUse">
            <stop stop-color="#70FF00"/>
            <stop offset="0.489583" stop-color="#70FF00" stop-opacity="0"/>
            <stop offset="1" stop-color="#70FF00"/>
        </linearGradient>
        <linearGradient id="paint1_linear_1891_14074" x1="478.887" y1="-269.136" x2="1298.65" y2="226.186" gradientUnits="userSpaceOnUse">
            <stop stop-color="#70FF00"/>
            <stop offset="0.489583" stop-color="#70FF00" stop-opacity="0"/>
            <stop offset="1" stop-color="#70FF00"/>
        </linearGradient>
        <linearGradient id="paint2_linear_1891_14074" x1="478.239" y1="-228.556" x2="1307.33" y2="297.051" gradientUnits="userSpaceOnUse">
            <stop stop-color="#70FF00"/>
            <stop offset="0.489583" stop-color="#70FF00" stop-opacity="0"/>
            <stop offset="1" stop-color="#70FF00"/>
        </linearGradient>
        <linearGradient id="paint3_linear_1891_14074" x1="477.696" y1="-186.89" x2="1313.62" y2="370.267" gradientUnits="userSpaceOnUse">
            <stop stop-color="#70FF00"/>
            <stop offset="0.489583" stop-color="#70FF00" stop-opacity="0"/>
            <stop offset="1" stop-color="#70FF00"/>
        </linearGradient>
        <linearGradient id="paint4_linear_1891_14074" x1="477.814" y1="-145.168" x2="1316.56" y2="442.741" gradientUnits="userSpaceOnUse">
            <stop stop-color="#70FF00"/>
            <stop offset="0.489583" stop-color="#70FF00" stop-opacity="0"/>
            <stop offset="1" stop-color="#70FF00"/>
        </linearGradient>
        <linearGradient id="paint5_linear_1891_14074" x1="476.988" y1="-103.54" x2="1316.12" y2="515.723" gradientUnits="userSpaceOnUse">
            <stop stop-color="#70FF00"/>
            <stop offset="0.489583" stop-color="#70FF00" stop-opacity="0"/>
            <stop offset="1" stop-color="#70FF00"/>
        </linearGradient>
        <linearGradient id="paint6_linear_1891_14074" x1="477.104" y1="-61.8184" x2="1312.7" y2="588.201" gradientUnits="userSpaceOnUse">
            <stop stop-color="#70FF00"/>
            <stop offset="0.489583" stop-color="#70FF00" stop-opacity="0"/>
            <stop offset="1" stop-color="#70FF00"/>
        </linearGradient>
        <linearGradient id="paint7_linear_1891_14074" x1="476.456" y1="-21.2384" x2="1306.15" y2="659.491" gradientUnits="userSpaceOnUse">
            <stop stop-color="#70FF00"/>
            <stop offset="0.489583" stop-color="#70FF00" stop-opacity="0"/>
            <stop offset="1" stop-color="#70FF00"/>
        </linearGradient>
        <linearGradient id="paint8_linear_1891_14074" x1="476.857" y1="20.5217" x2="1296.19" y2="731.561" gradientUnits="userSpaceOnUse">
            <stop stop-color="#70FF00"/>
            <stop offset="0.489583" stop-color="#70FF00" stop-opacity="0"/>
            <stop offset="1" stop-color="#70FF00"/>
        </linearGradient>
        <linearGradient id="paint9_linear_1891_14074" x1="476.038" y1="62.1178" x2="1281.19" y2="802.399" gradientUnits="userSpaceOnUse">
            <stop stop-color="#70FF00"/>
            <stop offset="0.489583" stop-color="#70FF00" stop-opacity="0"/>
            <stop offset="1" stop-color="#70FF00"/>
        </linearGradient>
        <linearGradient id="paint10_linear_1891_14074" x1="475.21" y1="103.746" x2="1262.83" y2="871.706" gradientUnits="userSpaceOnUse">
            <stop stop-color="#70FF00"/>
            <stop offset="0.489583" stop-color="#70FF00" stop-opacity="0"/>
            <stop offset="1" stop-color="#70FF00"/>
        </linearGradient>
        <linearGradient id="paint11_linear_1891_14074" x1="474.568" y1="144.295" x2="1240.79" y2="938.08" gradientUnits="userSpaceOnUse">
            <stop stop-color="#70FF00"/>
            <stop offset="0.489583" stop-color="#70FF00" stop-opacity="0"/>
            <stop offset="1" stop-color="#70FF00"/>
        </linearGradient>
        <linearGradient id="paint12_linear_1891_14074" x1="472.807" y1="185.765" x2="1213.08" y2="1003.64" gradientUnits="userSpaceOnUse">
            <stop stop-color="#70FF00"/>
            <stop offset="0.489583" stop-color="#70FF00" stop-opacity="0"/>
            <stop offset="1" stop-color="#70FF00"/>
        </linearGradient>
        <linearGradient id="paint13_linear_1891_14074" x1="470.385" y1="227.18" x2="1181.47" y2="1067.25" gradientUnits="userSpaceOnUse">
            <stop stop-color="#70FF00"/>
            <stop offset="0.489583" stop-color="#70FF00" stop-opacity="0"/>
            <stop offset="1" stop-color="#70FF00"/>
        </linearGradient>
        <linearGradient id="paint14_linear_1891_14074" x1="467.685" y1="268.526" x2="1144.91" y2="1126.73" gradientUnits="userSpaceOnUse">
            <stop stop-color="#70FF00"/>
            <stop offset="0.489583" stop-color="#70FF00" stop-opacity="0"/>
            <stop offset="1" stop-color="#70FF00"/>
        </linearGradient>
        <linearGradient id="paint15_linear_1891_14074" x1="462.264" y1="312.852" x2="1102.74" y2="1185.69" gradientUnits="userSpaceOnUse">
            <stop stop-color="#70FF00"/>
            <stop offset="0.489583" stop-color="#70FF00" stop-opacity="0"/>
            <stop offset="1" stop-color="#70FF00"/>
        </linearGradient>
    </defs>
</svg>
