<svg width="180" height="38" viewBox="0 0 180 38" fill="none" xmlns="http://www.w3.org/2000/svg">
<path d="M0 0H161C171.493 0 180 8.50659 180 19C180 29.4934 171.493 38 161 38H0L10.5 19L0 0Z" fill="#FBDE04"/>
<g clip-path="url(#clip0_3012_43243)">
<path d="M35.8603 15.0788C35.4644 14.6465 34.8488 14.063 34.5869 15.3805C34.4979 15.8284 34.2898 16.1737 34.1115 16.4517C33.9193 15.479 33.341 14.4722 32.7962 13.7934C32.5923 13.5394 31.8689 12.5298 31.7299 10.8407C31.7092 10.5886 31.4098 10.4702 31.2225 10.6403C29.4326 12.2651 28.4502 14.4997 28.4137 17.0155C28.4137 17.0155 27.6684 16.3872 27.2635 15.2185C27.1545 14.9038 26.7325 14.8437 26.5495 15.122C26.5143 15.1755 26.4818 15.229 26.4524 15.2809C25.0714 17.7227 24.4071 20.688 25.0212 23.4467C26.0481 28.0667 32.8403 29.3583 36.4362 26.4545C39.9543 23.6136 38.836 18.3259 35.8603 15.0788Z" fill="#ED694A"/>
<path d="M25.977 23.737C25.3701 20.9488 26.0126 17.9547 27.3611 15.4746C27.327 15.3924 27.2942 15.3073 27.2635 15.2188C27.1545 14.9041 26.7326 14.844 26.5495 15.1223C26.5144 15.1758 26.4818 15.2293 26.4524 15.2812C25.0715 17.723 24.4072 20.6882 25.0213 23.447C25.4897 25.5542 27.1576 26.9686 29.1746 27.6087C27.6011 26.8465 26.369 25.54 25.977 23.737Z" fill="#D8553A"/>
<path d="M29.3742 16.9693C29.4488 14.686 30.2746 12.6387 31.7526 11.0659C31.7425 10.9793 31.7349 10.9019 31.7301 10.8431C31.7089 10.5889 31.4204 10.4614 31.2339 10.6299C29.5052 12.1929 28.4515 14.4049 28.4137 17.0155L28.7373 17.2668C28.8966 17.3905 29.1125 17.3852 29.2647 17.2718C29.3555 17.1948 29.3685 17.0787 29.3742 16.9693Z" fill="#D8553A"/>
<path d="M34.7746 18.4562C34.4821 18.1369 34.0274 17.7059 33.834 18.679C33.7683 19.0098 33.6145 19.2649 33.4829 19.4703C33.341 18.7518 32.9138 18.0081 32.5114 17.5068C32.3608 17.3192 31.8265 16.5735 31.7238 15.3258C31.7085 15.1396 31.4874 15.0522 31.349 15.1778C30.027 16.3779 29.3014 18.0285 29.2744 19.8866C29.2744 19.8866 28.7239 19.4226 28.4249 18.5594C28.3444 18.3269 28.0327 18.2826 27.8975 18.4881C27.8716 18.5276 27.8475 18.5671 27.8258 18.6055C26.8057 20.409 26.3151 22.5992 26.7687 24.6369C27.5271 28.0493 32.544 29.0034 35.2 26.8585C37.7985 24.7602 36.9725 20.8546 34.7746 18.4562Z" fill="#F4A32C"/>
<path d="M27.7146 24.9046C27.313 22.9127 27.729 20.7754 28.6109 18.9956C28.5437 18.864 28.48 18.7186 28.4249 18.5594C28.3443 18.327 28.0327 18.2826 27.8975 18.4881C27.8715 18.5276 27.8474 18.5671 27.8257 18.6056C26.8057 20.4091 26.3151 22.5993 26.7686 24.6369C27.1214 26.224 28.3954 27.279 29.9245 27.738C28.8381 27.1932 27.9827 26.236 27.7146 24.9046Z" fill="#E89528"/>
<path d="M33.7835 21.5394C33.5856 21.3233 33.2777 21.0315 33.1468 21.6903C33.1023 21.9142 32.9982 22.0869 32.9091 22.2259C32.8129 21.7395 32.5239 21.2361 32.2514 20.8967C32.1495 20.7697 31.7878 20.2649 31.7183 19.4203C31.7079 19.2943 31.5582 19.2351 31.4645 19.3202C30.5696 20.1326 30.0784 21.2499 30.0602 22.5077C30.0602 22.5077 29.6875 22.1936 29.4851 21.6093C29.4306 21.4519 29.2196 21.4219 29.1281 21.561C29.1105 21.5877 29.0942 21.6145 29.0795 21.6405C28.3891 22.8614 28.0569 24.344 28.3639 25.7234C28.8773 28.0334 32.2735 28.6792 34.0714 27.2273C34.6871 26.7301 35.0688 26.0295 35.1462 25.2546C35.2631 24.0808 34.8114 22.661 33.7835 21.5394Z" fill="#F4D44E"/>
<path d="M32.8637 24.4007C32.7534 24.2803 32.582 24.1178 32.509 24.4847C32.4842 24.6095 32.4262 24.7057 32.3765 24.7832C32.323 24.5122 32.1619 24.2317 32.0102 24.0427C31.9534 23.9719 31.7519 23.6906 31.7131 23.2201C31.7073 23.1499 31.6239 23.117 31.5718 23.1643C31.0732 23.6169 30.7995 24.2394 30.7893 24.9402C30.7893 24.9402 30.5817 24.7652 30.4689 24.4396C30.4385 24.3519 30.321 24.3352 30.2701 24.4127C30.2603 24.4276 30.2512 24.4425 30.2431 24.457C29.8584 25.1372 29.6733 25.9632 29.8444 26.7317C30.234 28.4844 33.4272 28.4313 33.623 26.4705C33.688 25.8166 33.4364 25.0256 32.8637 24.4007Z" fill="#EAE9E8"/>
<path d="M30.5858 27.0795C30.4147 26.392 30.5998 25.6532 30.9845 25.0447C30.9926 25.0318 31.0017 25.0184 31.0115 25.0051C31.0625 24.9358 31.18 24.9507 31.2104 25.0291C31.3231 25.3204 31.5308 25.4769 31.5308 25.4769C31.5391 24.9619 31.7257 24.4943 32.0684 24.1192C31.9918 24.0131 31.7573 23.7572 31.7131 23.2201C31.7073 23.1499 31.6239 23.117 31.5718 23.1643C31.0732 23.6169 30.7995 24.2394 30.7893 24.9402C30.7893 24.9402 30.5817 24.7652 30.4689 24.4396C30.4386 24.352 30.321 24.3352 30.2701 24.4128C30.2603 24.4277 30.2512 24.4426 30.2431 24.4571C29.8584 25.1372 29.6733 25.9632 29.8444 26.7317C30.0027 27.4441 30.6531 27.8722 31.3721 27.9755C30.9842 27.785 30.6861 27.4834 30.5858 27.0795Z" fill="#F7E7A1"/>
<path d="M28.8504 11.5251C29.6528 10.8724 29.6511 9.65123 28.8504 9C28.0479 9.65268 28.0496 10.8739 28.8504 11.5251Z" fill="#D8553A"/>
<path d="M38.4689 16.7639C39.2714 16.1112 39.2696 14.89 38.4689 14.2388C38.1021 14.5371 37.6682 16.1126 38.4689 16.7639Z" fill="#D8553A"/>
<path d="M24.2557 17.2608C24.8341 16.7904 24.8328 15.9103 24.2557 15.4409C23.9914 15.6559 23.6786 16.7914 24.2557 17.2608Z" fill="#D8553A"/>
<path d="M34.2724 13.345C34.8507 12.8746 34.8495 11.9945 34.2724 11.5251C33.694 11.9955 33.6953 12.8757 34.2724 13.345Z" fill="#D8553A"/>
<path d="M30.0123 19.5882C30.1451 18.0202 30.7439 16.6261 31.7493 15.5632C31.7391 15.4862 31.7305 15.4071 31.7239 15.3258C31.7085 15.1396 31.4874 15.0522 31.3491 15.1778C30.3015 16.1287 29.6291 17.3628 29.3814 18.7587L29.3811 18.7586C29.3627 18.8621 29.3399 19.0129 29.3255 19.1314C29.3256 19.1315 29.3256 19.1316 29.3257 19.1317C29.2956 19.379 29.2781 19.6308 29.2744 19.8866C29.3024 19.8921 29.9358 20.2177 30.0123 19.5882Z" fill="#E89528"/>
<path d="M29.2894 26.051C29.0165 24.7623 29.2489 23.3882 29.7889 22.1975C29.6843 22.0508 29.5698 21.8538 29.4851 21.6091C29.4306 21.4518 29.2196 21.4218 29.1281 21.5609C29.1105 21.5876 29.0942 21.6144 29.0795 21.6404C28.3891 22.8613 28.0569 24.3438 28.3639 25.7232C28.6044 26.8051 29.4771 27.5219 30.5218 27.8292C29.9137 27.4255 29.4537 26.828 29.2894 26.051Z" fill="#E8C842"/>
<path d="M31.0454 21.9446C31.1359 21.298 31.4004 20.5855 31.8167 19.9899C31.7714 19.8217 31.7357 19.6317 31.7183 19.4203C31.7079 19.2943 31.5582 19.2351 31.4646 19.3202C30.907 19.8264 30.5068 20.4512 30.2794 21.1544L30.2788 21.1542C30.243 21.2647 30.1924 21.4477 30.1618 21.5922C30.1621 21.5921 30.1623 21.5921 30.1626 21.592C30.0998 21.8868 30.0649 22.1927 30.0603 22.5077C30.561 22.5702 30.9752 22.4462 31.0454 21.9446Z" fill="#E8C842"/>
</g>
<path d="M51.4554 22.152H54.5914V24H49.0614V14.172H51.4554V22.152ZM56.9372 15.376C56.5172 15.376 56.1719 15.2547 55.9012 15.012C55.6399 14.76 55.5092 14.452 55.5092 14.088C55.5092 13.7147 55.6399 13.4067 55.9012 13.164C56.1719 12.912 56.5172 12.786 56.9372 12.786C57.3479 12.786 57.6839 12.912 57.9452 13.164C58.2159 13.4067 58.3512 13.7147 58.3512 14.088C58.3512 14.452 58.2159 14.76 57.9452 15.012C57.6839 15.2547 57.3479 15.376 56.9372 15.376ZM58.1272 16.188V24H55.7332V16.188H58.1272ZM63.3761 21.76L65.0701 16.188H67.6181L64.8461 24H61.8921L59.1201 16.188H61.6821L63.3761 21.76ZM75.9898 19.968C75.9898 20.192 75.9758 20.4253 75.9478 20.668H70.5298C70.5671 21.1533 70.7211 21.5267 70.9918 21.788C71.2718 22.04 71.6125 22.166 72.0138 22.166C72.6111 22.166 73.0265 21.914 73.2598 21.41H75.8078C75.6771 21.9233 75.4391 22.3853 75.0938 22.796C74.7578 23.2067 74.3331 23.5287 73.8198 23.762C73.3065 23.9953 72.7325 24.112 72.0978 24.112C71.3325 24.112 70.6511 23.9487 70.0538 23.622C69.4565 23.2953 68.9898 22.8287 68.6538 22.222C68.3178 21.6153 68.1498 20.906 68.1498 20.094C68.1498 19.282 68.3131 18.5727 68.6398 17.966C68.9758 17.3593 69.4425 16.8927 70.0398 16.566C70.6371 16.2393 71.3231 16.076 72.0978 16.076C72.8538 16.076 73.5258 16.2347 74.1138 16.552C74.7018 16.8693 75.1591 17.322 75.4858 17.91C75.8218 18.498 75.9898 19.184 75.9898 19.968ZM73.5398 19.338C73.5398 18.9273 73.3998 18.6007 73.1198 18.358C72.8398 18.1153 72.4898 17.994 72.0698 17.994C71.6685 17.994 71.3278 18.1107 71.0478 18.344C70.7771 18.5773 70.6091 18.9087 70.5438 19.338H73.5398ZM83.7756 24.112C83.0102 24.112 82.3196 23.9487 81.7036 23.622C81.0969 23.2953 80.6162 22.8287 80.2616 22.222C79.9162 21.6153 79.7436 20.906 79.7436 20.094C79.7436 19.2913 79.9209 18.5867 80.2756 17.98C80.6302 17.364 81.1156 16.8927 81.7316 16.566C82.3476 16.2393 83.0382 16.076 83.8036 16.076C84.5689 16.076 85.2596 16.2393 85.8756 16.566C86.4916 16.8927 86.9769 17.364 87.3316 17.98C87.6862 18.5867 87.8636 19.2913 87.8636 20.094C87.8636 20.8967 87.6816 21.606 87.3176 22.222C86.9629 22.8287 86.4729 23.2953 85.8476 23.622C85.2316 23.9487 84.5409 24.112 83.7756 24.112ZM83.7756 22.04C84.2329 22.04 84.6202 21.872 84.9376 21.536C85.2642 21.2 85.4276 20.7193 85.4276 20.094C85.4276 19.4687 85.2689 18.988 84.9516 18.652C84.6436 18.316 84.2609 18.148 83.8036 18.148C83.3369 18.148 82.9496 18.316 82.6416 18.652C82.3336 18.9787 82.1796 19.4593 82.1796 20.094C82.1796 20.7193 82.3289 21.2 82.6276 21.536C82.9356 21.872 83.3182 22.04 83.7756 22.04ZM93.8936 16.104C94.8083 16.104 95.5363 16.4027 96.0776 17C96.6283 17.588 96.9036 18.4 96.9036 19.436V24H94.5236V19.758C94.5236 19.2353 94.3883 18.8293 94.1176 18.54C93.847 18.2507 93.483 18.106 93.0256 18.106C92.5683 18.106 92.2043 18.2507 91.9336 18.54C91.663 18.8293 91.5276 19.2353 91.5276 19.758V24H89.1336V16.188H91.5276V17.224C91.7703 16.8787 92.097 16.608 92.5076 16.412C92.9183 16.2067 93.3803 16.104 93.8936 16.104ZM108.604 14.172V16.09H106V24H103.606V16.09H101.002V14.172H108.604ZM117.169 19.968C117.169 20.192 117.156 20.4253 117.128 20.668H111.71C111.747 21.1533 111.901 21.5267 112.172 21.788C112.452 22.04 112.792 22.166 113.194 22.166C113.791 22.166 114.206 21.914 114.44 21.41H116.988C116.857 21.9233 116.619 22.3853 116.274 22.796C115.938 23.2067 115.513 23.5287 115 23.762C114.486 23.9953 113.912 24.112 113.278 24.112C112.512 24.112 111.831 23.9487 111.234 23.622C110.636 23.2953 110.17 22.8287 109.834 22.222C109.498 21.6153 109.33 20.906 109.33 20.094C109.33 19.282 109.493 18.5727 109.82 17.966C110.156 17.3593 110.622 16.8927 111.22 16.566C111.817 16.2393 112.503 16.076 113.278 16.076C114.034 16.076 114.706 16.2347 115.294 16.552C115.882 16.8693 116.339 17.322 116.666 17.91C117.002 18.498 117.169 19.184 117.169 19.968ZM114.72 19.338C114.72 18.9273 114.58 18.6007 114.3 18.358C114.02 18.1153 113.67 17.994 113.25 17.994C112.848 17.994 112.508 18.1107 112.228 18.344C111.957 18.5773 111.789 18.9087 111.724 19.338H114.72ZM121.61 24.112C120.929 24.112 120.322 23.9953 119.79 23.762C119.258 23.5287 118.838 23.2113 118.53 22.81C118.222 22.3993 118.05 21.942 118.012 21.438H120.378C120.406 21.7087 120.532 21.928 120.756 22.096C120.98 22.264 121.256 22.348 121.582 22.348C121.881 22.348 122.11 22.292 122.268 22.18C122.436 22.0587 122.52 21.9047 122.52 21.718C122.52 21.494 122.404 21.3307 122.17 21.228C121.937 21.116 121.559 20.9947 121.036 20.864C120.476 20.7333 120.01 20.598 119.636 20.458C119.263 20.3087 118.941 20.08 118.67 19.772C118.4 19.4547 118.264 19.03 118.264 18.498C118.264 18.05 118.386 17.644 118.628 17.28C118.88 16.9067 119.244 16.6127 119.72 16.398C120.206 16.1833 120.78 16.076 121.442 16.076C122.422 16.076 123.192 16.3187 123.752 16.804C124.322 17.2893 124.648 17.9333 124.732 18.736H122.52C122.483 18.4653 122.362 18.2507 122.156 18.092C121.96 17.9333 121.699 17.854 121.372 17.854C121.092 17.854 120.878 17.91 120.728 18.022C120.579 18.1247 120.504 18.2693 120.504 18.456C120.504 18.68 120.621 18.848 120.854 18.96C121.097 19.072 121.47 19.184 121.974 19.296C122.553 19.4453 123.024 19.5947 123.388 19.744C123.752 19.884 124.07 20.1173 124.34 20.444C124.62 20.7613 124.765 21.1907 124.774 21.732C124.774 22.1893 124.644 22.6 124.382 22.964C124.13 23.3187 123.762 23.5987 123.276 23.804C122.8 24.0093 122.245 24.112 121.61 24.112ZM130.593 21.97V24H129.375C128.507 24 127.83 23.79 127.345 23.37C126.86 22.9407 126.617 22.2453 126.617 21.284V18.176H125.665V16.188H126.617V14.284H129.011V16.188H130.579V18.176H129.011V21.312C129.011 21.5453 129.067 21.7133 129.179 21.816C129.291 21.9187 129.478 21.97 129.739 21.97H130.593ZM136.687 16.104C137.601 16.104 138.329 16.4027 138.871 17C139.421 17.588 139.697 18.4 139.697 19.436V24H137.317V19.758C137.317 19.2353 137.181 18.8293 136.911 18.54C136.64 18.2507 136.276 18.106 135.819 18.106C135.361 18.106 134.997 18.2507 134.727 18.54C134.456 18.8293 134.321 19.2353 134.321 19.758V24H131.927V16.188H134.321V17.224C134.563 16.8787 134.89 16.608 135.301 16.412C135.711 16.2067 136.173 16.104 136.687 16.104ZM148.724 19.968C148.724 20.192 148.71 20.4253 148.682 20.668H143.264C143.302 21.1533 143.456 21.5267 143.726 21.788C144.006 22.04 144.347 22.166 144.748 22.166C145.346 22.166 145.761 21.914 145.994 21.41H148.542C148.412 21.9233 148.174 22.3853 147.828 22.796C147.492 23.2067 147.068 23.5287 146.554 23.762C146.041 23.9953 145.467 24.112 144.832 24.112C144.067 24.112 143.386 23.9487 142.788 23.622C142.191 23.2953 141.724 22.8287 141.388 22.222C141.052 21.6153 140.884 20.906 140.884 20.094C140.884 19.282 141.048 18.5727 141.374 17.966C141.71 17.3593 142.177 16.8927 142.774 16.566C143.372 16.2393 144.058 16.076 144.832 16.076C145.588 16.076 146.26 16.2347 146.848 16.552C147.436 16.8693 147.894 17.322 148.22 17.91C148.556 18.498 148.724 19.184 148.724 19.968ZM146.274 19.338C146.274 18.9273 146.134 18.6007 145.854 18.358C145.574 18.1153 145.224 17.994 144.804 17.994C144.403 17.994 144.062 18.1107 143.782 18.344C143.512 18.5773 143.344 18.9087 143.278 19.338H146.274ZM154.341 21.97V24H153.123C152.255 24 151.578 23.79 151.093 23.37C150.608 22.9407 150.365 22.2453 150.365 21.284V18.176H149.413V16.188H150.365V14.284H152.759V16.188H154.327V18.176H152.759V21.312C152.759 21.5453 152.815 21.7133 152.927 21.816C153.039 21.9187 153.226 21.97 153.487 21.97H154.341Z" fill="black"/>
<defs>
<clipPath id="clip0_3012_43243">
<rect width="19" height="19" fill="white" transform="translate(22 9)"/>
</clipPath>
</defs>
</svg>
