<svg xmlns="http://www.w3.org/2000/svg"
    xmlns:xlink="http://www.w3.org/1999/xlink"
    xmlns:v="https://vecta.io/nano" width="1920" height="1271" fill="none">
    <style><![CDATA[.B{opacity:.7}.C{stroke-dasharray:0,0,3982.368000000001,2399.631999999999}]]></style>
    <g style="mix-blend-mode:multiply" clip-path="url(#Q)">
        <rect width="1920" height="1271" fill="none" class="C">
            <animate attributeType="XML" attributeName="stroke-dasharray" repeatCount="indefinite" dur="10s" values="0,0,3982.368000000001,2399.631999999999;            0,2399.631999999999,3982.368000000001,0;            3982.368000000001,2399.631999999999,0,0" keyTimes="0; 0.3759999999999999; 1"/>
        </rect>
        <g stroke-width="2" stroke-miterlimit="10">
            <path d="M1708.7-262.104c-62.12 7.901-127.88 26.004-190.16 52.326-62.42 26.395-121.7 61.172-171.42 100.62-50.83 40.36-94.7 87.906-126.9 137.519-30.34 46.676-50.45 95.456-58.13 141.029-2.12 12.503-3.39 24.935-4.14 37.229l-.36 6.853-.01.022c-.44 8.966-.63 17.849-.75 26.649l-.01.068-.08 10.814c0 .023-.01.068.01.094l-.04 5.302-.11 12.657c0 .022-.03.042-.01.068l-.07 6.638-.01.09-.58 21.064c-.03-.004-.01.022-.01.022l-.24 5.253c-.4 7.655-1.01 15.351-1.9 23.081v.022l-.55 4.589v.022c-1 7.968-2.32 15.962-4.07 24.014-.08.497-.2 1.012-.31 1.505l-.62 2.687c-1.85 7.923-4.26 15.864-7.14 23.718l-1.57 4.107c-2.82 7.331-6.11 14.601-9.76 21.729-.68 1.364-1.41 2.721-2.13 4.055a234.64 234.64 0 0 1-11.42 19.061 104.44 104.44 0 0 1-2.76 4.04v.023c-3.83 5.604-7.98 11.028-12.33 16.286l-2.4 2.864-1.07 1.242c-4.2 4.839-8.57 9.448-13.11 13.85-1.42 1.403-2.88 2.777-4.34 4.128a224.41 224.41 0 0 1-13.63 11.52l-5.37 4.06c-4.63 3.351-9.35 6.528-14.19 9.482-2.17 1.349-4.35 2.628-6.57 3.877a200.3 200.3 0 0 1-14.67 7.548c-2.65 1.24-5.3 2.408-8 3.525a203.61 203.61 0 0 1-15.12 5.596l-1.22.391c-2.76.877-5.596 1.722-8.446 2.495-5.073 1.399-10.298 2.617-15.708 3.694l-.026-.003c-3.737.77-7.536 1.439-11.484 2.066-8.858 1.378-18.261 2.43-28.45 3.192-15.794 1.144-31.884 1.579-47.419 1.973-17.215.446-33.463.883-49.445 2.21-29.291 2.456-58.863 7.622-90.386 15.781-27.061 6.978-54.37 16.161-81.475 27.357l-11.096 4.68c-5.95 2.552-11.869 5.223-17.777 7.988l-8.76 4.161-8.678 4.287a.9.9 0 0 1-.257.127c-.366.159-.682.325-1.031.532-.026-.004-.055.016-.055.016l-6.039 3.07-.03.019c-.341.162-.682.325-1.031.532l-6.139 3.196c-.026-.004-.03.019-.03.019l-1.986 1.073-5.582 2.993-2.479 1.354-5.226 2.902-2.689 1.51-5.065 2.878-2.612 1.52-5.085 2.99-2.473 1.47-5.159 3.119-2.249 1.385-5.292 3.285-2.047 1.273-5.484 3.491c-.555.341-1.117.728-1.702 1.088l-5.705 3.715c-.416.291-.857.578-1.298.866l-4.927 3.288c-.327.233-.65.444-1.003.674l-1.008.696-6.16 4.231c-.235.154-.445.31-.654.467l-6.444 4.517c-38.806 27.634-78.545 61.63-123.652 105.756-40.232 39.307-85.471 86.185-116.074 135.78-9.476 15.352-17.889 31.053-25.703 46.765-.033.042-.037.064-.045.109l-4.448 9.03a.39.39 0 0 1-.078.151l-.369.782-.004.023-2.654 5.577c-.029.019-.033.041-.037.064l-.004.022-1.596 3.364c-.029.02-.029.02-.007.046-.078.151-.164.347-.242.498a6.15 6.15 0 0 0-.291.631c-.395.778-.739 1.563-1.108 2.344l-.004.023a46.83 46.83 0 0 0-.786 1.695 45.21 45.21 0 0 0-.787 1.695l-1.071 2.281-.003.022c-.168.37-.358.714-.504 1.11-.406.846-.813 1.692-1.168 2.544-.193.367-.357.714-.496 1.065l-.004.022-1.163 2.522c-.157.302-.287.608-.414.891-.411.868-.795 1.74-1.176 2.59-.164.347-.324.672-.459 1l-1.097 2.438c-.193.367-.361.737-.5 1.087-.365.759-.705 1.522-1.04 2.262-.205.434-.411.868-.59 1.306a86.14 86.14 0 0 0-.925 2.046l-.705 1.521-.004.023-.766 1.721c-.041.087-.078.151-.119.238l-.75 1.634-.634 1.41-1.004 2.2c-.164.35-.306.72-.496 1.06-.355.86-.735 1.71-1.142 2.55l-1.642 3.64c-12.454 27.39-25.65 55.45-42.131 83.32l-8.751 14.31c-23.898 37.92-55.263 74.12-88.378 101.93-38.396 32.26-78.657 52.99-116.426 59.94" stroke="url(#A)" stroke-dasharray="0,0,1563.4024453125003,942.0501914062497" class="B">
                <animate attributeType="XML" attributeName="stroke-dasharray" repeatCount="indefinite" dur="10s" values="0,0,1563.4024453125003,942.0501914062497;            0,942.0501914062497,1563.4024453125003,0;            1563.4024453125003,942.0501914062497,0,0" keyTimes="0; 0.3759999999999999; 1"/>
            </path>
            <path d="M1747.48-209.987c-130.49 21.777-266.53 77.918-373.24 154.006-53.27 38.045-100.5 82.34-136.59 128.123-33.7 42.643-57.99 86.981-70.29 128.239-8.07 27.108-11.43 53.415-14.69 78.858-3.61 28.073-7.34 57.122-17.44 86.472-10.8 31.032-30.78 61.739-56.26 86.497-27.81 27.03-61.34 45.939-99.655 56.227-18.67 4.956-38.863 7.978-65.52 9.836l-28.486 1.707c-23.791 1.296-48.426 2.64-70.335 6.218-27.042 4.413-52.887 11.293-83.777 22.297-64.01 22.678-129.085 59.491-188.196 106.488-36.035 28.677-70.229 62.466-106.437 98.246l-24.49 24.129-30.4 29.337c-36.02 34.537-70.068 67.169-94.672 100.348-23.113 31.187-40.247 62.55-58.406 95.779-14.934 27.37-30.391 55.66-49.8 84.6l-9.442 13.77c-46.977 67.21-124.237 145.85-200.188 165.02" stroke="url(#B)" stroke-dasharray="0,0,1529.5154062500003,921.6310781249997" class="B">
                <animate attributeType="XML" attributeName="stroke-dasharray" repeatCount="indefinite" dur="10s" values="0,0,1529.5154062500003,921.6310781249997;            0,921.6310781249997,1529.5154062500003,0;            1529.5154062500003,921.6310781249997,0,0" keyTimes="0; 0.3759999999999999; 1"/>
            </path>
            <path d="M1786.45-159.045c-133.5 27.406-273.82 84.027-384.96 155.372-55.72 35.815-106.3 76.955-146.36 118.972-36.96 38.643-65.48 78.646-82.48 115.639-11.07 24.19-17.65 47.341-24.03 69.758-7.26 25.576-14.15 49.748-27.09 75.119-13.89 27.184-36.03 53.634-62.43 74.53-29.03 22.991-63.35 38.904-101.971 47.271-22.337 4.84-45.364 6.842-66.905 8.258l-6.607.433c-32.456 2.127-66.046 4.31-94.143 11.198-31.808 7.799-55.571 18.521-77.178 28.861-57.527 27.493-115.261 67.932-166.966 116.956-20.033 18.999-39.47 40.155-60.033 62.546-19.754 21.483-40.154 43.688-62.964 66.079-21.239 20.846-42.986 39.778-64.047 58.062-26.198 22.793-50.947 44.301-70.127 65.791-26.815 30.051-47.019 60.869-68.395 93.49-15.147 23.12-30.823 47.04-49.848 72.2l-10.139 13.25c-25.124 32.54-113.461 140.85-195.539 168.41" stroke="url(#C)" stroke-dasharray="0,0,1505.5232460937502,907.1742636718748" class="B">
                <animate attributeType="XML" attributeName="stroke-dasharray" repeatCount="indefinite" dur="10s" values="0,0,1505.5232460937502,907.1742636718748;            0,907.1742636718748,1505.5232460937502,0;            1505.5232460937502,907.1742636718748,0,0" keyTimes="0; 0.3759999999999999; 1"/>
            </path>
            <path d="M1826.56-106.749c-137.1 33.139-281.84 90.191-397.04 156.545-58.06 33.519-112.1 71.455-156.25 109.719-40.15 34.664-72.91 70.272-94.72 103.003-13.89 20.906-23.6 40.617-32.98 59.678-10.88 22.094-21.18 42.95-37.13 64.619-17.19 23.329-41.57 45.488-68.62 62.443-30.01 18.799-65.125 31.653-104.341 38.233-22.623 3.788-45.869 5.253-68.345 6.659-35.961 2.236-73.3 5.65-102.687 15.321-31.104 10.227-52.093 23.559-70.591 35.332-50.854 32.358-101.301 76.383-145.847 127.337-11.98 13.728-23.746 28.501-36.182 44.13-23.503 29.526-47.806 60.053-79.012 90.72-28.283 27.802-59.442 51.48-86.936 72.393-20.786 15.807-40.451 30.724-56.461 45.53-31.827 29.406-56.267 60.585-82.122 93.607-14.264 18.2-29.001 37.03-46.199 57.24l-10.84 12.73c-79.198 93.02-143.45 150.74-190.945 171.59" stroke="url(#D)" stroke-dasharray="0,0,1491.7117617187503,898.8519589843747" class="B">
                <animate attributeType="XML" attributeName="stroke-dasharray" repeatCount="indefinite" dur="10s" values="0,0,1491.7117617187503,898.8519589843747;            0,898.8519589843747,1491.7117617187503,0;            1491.7117617187503,898.8519589843747,0,0" keyTimes="0; 0.3759999999999999; 1"/>
            </path>
            <path d="M1865.34-54.631c-141.51 39.211-290.41 96.678-408.52 157.682-60.22 31.177-117.59 65.917-165.94 100.434-43.1 30.626-80.06 61.865-106.87 90.329-15.96 17.018-28.31 32.764-40.25 47.988-15.02 19.128-29.2 37.214-48.83 55.633-14.61 13.714-39.45 33.56-74.67 50.241-30.67 14.522-66.494 24.34-106.509 29.168-18.045 2.18-36.23 3.188-55.446 4.266l-14.177.806c-46.11 2.722-80.271 8.932-104.451 18.991-28.906 12.011-46.111 26.671-62.762 40.85l-1.073.918c-44.136 37.571-87.196 85.183-124.585 137.684-7.204 10.158-14.308 20.791-21.804 32.041-22.626 33.938-48.248 72.391-85.393 108.981-33.747 33.237-72.119 58.219-105.959 80.254-16.918 11.006-32.894 21.399-46.501 31.694-39.487 29.817-69.313 61.986-103.847 99.202l-34.368 36.71-11.496 12.17-13.444 14.37C73.461 1154.7 5.033 1227.99-44.081 1256.02" stroke="url(#E)" stroke-dasharray="0,0,1487.4689882812502,896.2954160156247" class="B">
                <animate attributeType="XML" attributeName="stroke-dasharray" repeatCount="indefinite" dur="10s" values="0,0,1487.4689882812502,896.2954160156247;            0,896.2954160156247,1487.4689882812502,0;            1487.4689882812502,896.2954160156247,0,0" keyTimes="0; 0.3759999999999999; 1"/>
            </path>
            <path d="M1904.11-2.514c-150.71 46.879-299.99 103.343-420.36 158.961-62.83 29.129-121.97 59.811-175.78 91.23-45.59 26.471-86.81 53.387-119.18 77.793-15.83 11.985-29.13 22.945-42.01 33.548-20.95 17.256-40.74 33.558-66.12 49.528-25.05 15.761-52.22 28.562-80.726 38.068-31.277 10.406-66.815 16.989-108.663 20.121-13.402 1.001-26.803 1.542-40.991 2.092l-29.96 1.351c-31.522 1.765-75.53 7.124-106.244 22.636-27.734 13.994-41.769 30.281-55.345 46.029l-1.826 2.11c-37.419 43.347-73.183 94.577-103.445 148.18l-12.523 22.881c-20.999 38.918-44.821 83.02-86.8 124.442-38.644 38.13-83.907 62.867-123.865 84.713-13.59 7.438-26.452 14.443-37.869 21.41-53.887 32.793-91.262 67.791-147.82 120.741l-.343.33-12.188 11.61c-21.371 20.8-44.648 44.95-67.162 68.29-43.251 44.88-84.113 87.26-113.898 109.4" stroke="url(#F)" stroke-dasharray="0,0,1496.7354492187503,901.8790527343747" class="B">
                <animate attributeType="XML" attributeName="stroke-dasharray" repeatCount="indefinite" dur="10s" values="0,0,1496.7354492187503,901.8790527343747;            0,901.8790527343747,1496.7354492187503,0;            1496.7354492187503,901.8790527343747,0,0" keyTimes="0; 0.3759999999999999; 1"/>
            </path>
            <path d="M1942.89 49.604c-176.36 60.642-317.67 113.006-431.94 160.102-63 26.039-125.4 53.635-185.52 81.973-46.15 21.626-90.38 43.553-131.46 65.188L1171 369.088c-36.88 19.705-66.02 35.277-104.15 50.202-29.52 11.555-57.86 20.015-86.635 25.834-30.21 6.111-66.423 9.737-110.709 11.062l-26.095.55-46.116 1.334c-26.213 1.387-75.117 6.638-107.956 26.259-27.096 16.146-38.181 34.315-48.901 51.887l-1.562 2.559c-31.199 50.907-58.872 104.269-82.217 158.601l-6.431 15.263c-18.161 43.447-38.776 92.678-84.933 138.311-43.328 42.852-97.917 67.248-141.785 86.872l-29.145 13.312c-53.097 25.448-95.892 54.206-157.948 106.156l-12.845 11.07c-41.426 36.78-87.171 86.12-123.965 125.76l-52.008 54.77" stroke="url(#G)" stroke-dasharray="0,0,1517.3538046875003,914.3029335937497" class="B">
                <animate attributeType="XML" attributeName="stroke-dasharray" repeatCount="indefinite" dur="10s" values="0,0,1517.3538046875003,914.3029335937497;            0,914.3029335937497,1517.3538046875003,0;            1517.3538046875003,914.3029335937497,0,0" keyTimes="0; 0.3759999999999999; 1"/>
            </path>
            <path d="M1981.86 100.545l-275.74 100.703L1538 262.14l-156.73 58.372-42.68 15.979-139.9 51.201c-58.85 20.815-98.46 32.17-146.2 41.885-23.45 4.786-55.167 10.639-92.595 13.696-31.226 2.547-67.684 2.687-112.822 2.082l-10.689-.159c-20.175-.317-41-.652-62.83.449-45.608 2.288-85.607 13.176-109.719 29.88-26.746 18.501-34.949 38.763-42.883 58.368l-.992 2.431c-25.349 62.349-44.765 116.163-61.091 169.328l-2.584 8.522c-13.775 45.447-30.893 102.016-80.922 151.601-48.237 47.816-110.716 69.854-160.951 87.548l-19.403 6.921c-55.06 20.074-102.349 42.386-167.866 91.446a438.38 438.38 0 0 0-13.513 10.53c-67.213 54.54-139.098 141.06-170.958 183.6" stroke="url(#H)" stroke-dasharray="0,0,1551.6760898437503,934.9843105468748" class="B">
                <animate attributeType="XML" attributeName="stroke-dasharray" repeatCount="indefinite" dur="10s" values="0,0,1551.6760898437503,934.9843105468748;            0,934.9843105468748,1551.6760898437503,0;            1551.6760898437503,934.9843105468748,0,0" keyTimes="0; 0.3759999999999999; 1"/>
            </path>
            <path d="M2021.97 152.841c-124.63 50.598-273.72 103.837-455.8 162.753l-205.34 63.586c-62.78 17.921-113.88 31.033-156.28 40.022-65.29 13.963-113.29 18.558-165.24 21.194-28.06 1.421-61.715 2.717-98.558 1.556-19.504-.598-41.152-2.106-64.046-3.665l-50.861-3.264c-24.701-1.385-49.028-2.512-74.804-1.294-46.042 2.179-87.711 14.682-111.472 33.432-26.541 20.94-31.778 43.411-36.865 65.163l-4.863 20.744-35.453 160.944-.426 2.181c-9.569 49.425-21.474 110.954-75.149 164.225-53.579 53.168-127.83 72.441-182.056 86.52l-7.687 1.997c-54.652 14.276-109.387 30.872-177.712 76.575-4.664 3.12-9.422 6.47-14.152 9.97-72.494 53.71-142.953 142.68-165.927 186.28" stroke="url(#I)" stroke-dasharray="0,0,1595.9218945312502,961.6452441406248" class="B">
                <animate attributeType="XML" attributeName="stroke-dasharray" repeatCount="indefinite" dur="10s" values="0,0,1595.9218945312502,961.6452441406248;            0,961.6452441406248,1595.9218945312502,0;            1595.9218945312502,961.6452441406248,0,0" keyTimes="0; 0.3759999999999999; 1"/>
            </path>
            <path d="M2060.75 204.959c-170.26 74.067-348.32 130.021-467.7 163.898-79.32 22.596-151.73 40.879-215.21 54.312-63.81 13.388-120.55 22.578-168.64 27.341-68.44 6.864-123.16 5.181-184.27.523-32.026-2.434-66.837-5.401-104.542-10.554l-33.127-4.865c-24.846-3.758-53.003-8.027-83.884-11.046-21.882-2.14-48.024-4.133-76.082-2.876-47.237 2.108-89.556 15.946-113.214 36.983-26.434 23.504-28.707 49.428-30.689 72.277l-.105 1.071-9.208 94.454-9.425 95.718c-4.44 48.934-10.516 115.964-67.641 172.714-59.55 59.148-146.952 73.813-199.171 82.568-57.495 9.642-116.961 19.644-187.575 61.743-4.889 2.9-9.879 6.08-14.816 9.42-71.921 48.65-144.282 139.84-160.895 188.88" stroke="url(#J)" stroke-dasharray="0,0,1649.7591093750002,994.0856171874997" class="B">
                <animate attributeType="XML" attributeName="stroke-dasharray" repeatCount="indefinite" dur="10s" values="0,0,1649.7591093750002,994.0856171874997;            0,994.0856171874997,1649.7591093750002,0;            1649.7591093750002,994.0856171874997,0,0" keyTimes="0; 0.3759999999999999; 1"/>
            </path>
            <path d="M2099.53 257.077c-178.29 82.651-359.26 135.475-479.66 165.239-80.89 20.068-156.64 35.237-225.14 45.1-66.46 9.442-127.36 14.389-180.99 14.677-78.99.499-144.39-9.392-203.26-20.12-31.59-5.767-69.419-12.967-110.584-22.667l-19.038-4.551c-29.398-7.113-62.74-15.167-100.087-20.296-29.273-4.026-53.844-5.44-77.336-4.449-37.45 1.573-87.295 13.074-114.957 40.53-26.374 26.198-25.287 54.634-24.307 79.733 2.13 54.697 2.331 114.237 2.533 177.284l.085 23.456c.284 57.681-4.102 123.853-59.679 179.17-57.684 57.39-141.8 71.142-208.642 76.703l-9.257.77c-61.499 5.052-119.602 9.819-188.205 46.254-5.118 2.7-10.308 5.68-15.457 8.87-78.37 48.42-146.946 141.13-155.921 191.67" stroke="url(#K)" stroke-dasharray="0,0,1712.4170273437503,1031.8410292968747" class="B">
                <animate attributeType="XML" attributeName="stroke-dasharray" repeatCount="indefinite" dur="10s" values="0,0,1712.4170273437503,1031.8410292968747;            0,1031.8410292968747,1712.4170273437503,0;            1712.4170273437503,1031.8410292968747,0,0" keyTimes="0; 0.3759999999999999; 1"/>
            </path>
            <path d="M2138.5 308.018c-145.48 71.5-315.44 129.133-491.48 166.652-82.98 17.749-162.03 29.812-234.97 35.857-69.35 5.671-134.34 6.337-193.25 1.999-86.74-6.326-160.98-24.164-222.168-40.789-45.851-12.637-81.786-23.348-116.581-34.762l-11.901-3.922c-32.058-10.609-68.419-22.647-109.292-29.863-28.795-5.094-53.771-6.999-78.562-6.018-36.664 1.474-89.244 13.91-116.636 44.095-26.42 29.091-21.67 60.708-17.846 86.13 10.466 71.466 17.923 146.916 23.85 211.311 5.908 63.747 3.743 130.362-51.712 185.656-47.194 47.047-118.498 70.211-218.037 70.832l-18.854.044c-61.823.028-120.226.074-188.42 32.24-5.375 2.54-10.793 5.32-16.096 8.35-76.802 43.35-148.734 136.06-150.93 194.47" stroke="url(#L)" stroke-dasharray="0,0,1781.7878203125003,1073.6413789062497" class="B">
                <animate attributeType="XML" attributeName="stroke-dasharray" repeatCount="indefinite" dur="10s" values="0,0,1781.7878203125003,1073.6413789062497;            0,1073.6413789062497,1781.7878203125003,0;            1781.7878203125003,1073.6413789062497,0,0" keyTimes="0; 0.3759999999999999; 1"/>
            </path>
            <path d="M2177.28 360.136c-149.02 77.155-323.06 135.184-503.3 167.813-85.23 15.468-167.6 24.42-244.77 26.568-72.28 1.948-141.42-1.66-205.46-10.701-76.12-10.702-150.47-29.634-241.09-61.422-44.01-15.547-84.112-30.873-122.614-46.838l-9.002-3.741c-35.223-14.673-71.639-29.852-114.32-38.969-27.969-6.067-54.07-8.54-79.821-7.574-37.642 1.431-91.249 14.734-118.332 47.569-26.314 31.854-17.686 66.9-11.381 92.476 15.418 63.432 30.171 135.935 45.114 221.66 10.907 62.46 14.233 134.082-43.72 191.956-61.855 61.737-157.81 69.317-227.416 64.807l-25.998-1.85c-60.163-4.559-122.393-9.252-191.123 19.4-5.569 2.31-11.196 4.94-16.73 7.8-80.106 41.21-151.033 136.97-145.91 197.04" stroke="url(#M)" stroke-dasharray="0,0,1856.3683125000002,1118.5809062499998" class="B">
                <animate attributeType="XML" attributeName="stroke-dasharray" repeatCount="indefinite" dur="10s" values="0,0,1856.3683125000002,1118.5809062499998;            0,1118.5809062499998,1856.3683125000002,0;            1856.3683125000002,1118.5809062499998,0,0" keyTimes="0; 0.3759999999999999; 1"/>
            </path>
            <path d="M2217.38 412.432c-152.27 82.738-330.54 141.229-515.51 169.141-87.71 13.279-173.42 19.091-254.8 17.289-75.25-1.721-148.56-9.577-217.84-23.404-83.75-16.66-166.41-42.753-260.178-82.104-43.702-18.418-87.028-38.264-128.742-58.979l-7.108-3.535c-36.57-18.228-74.421-37.065-118.444-48.117-27.939-7.103-54.464-10.093-81.092-9.127-61.882 2.211-103.406 28.908-120.155 51.114-24.192 32.06-16.149 65.08-4.951 98.914 23.227 70.595 44.935 146.549 66.391 232.21 6.761 26.917 14.09 62.427 10.786 98.639-3.598 39.451-18.814 72.087-46.548 99.796-69.066 69.001-178.123 66.501-236.987 58.881l-31.737-4.47c-61.71-9.003-125.538-18.316-195.405 7.29-5.801 2.11-11.634 4.57-17.403 7.26-84.671 39.67-153.225 136.81-141.046 199.85" stroke="url(#N)" stroke-dasharray="0,0,1937.8865390625003,1167.7008632812497" class="B">
                <animate attributeType="XML" attributeName="stroke-dasharray" repeatCount="indefinite" dur="10s" values="0,0,1937.8865390625003,1167.7008632812497;            0,1167.7008632812497,1937.8865390625003,0;            1937.8865390625003,1167.7008632812497,0,0" keyTimes="0; 0.3759999999999999; 1"/>
            </path>
            <path d="M2256.16 464.55c-155.13 88.115-337.46 146.996-527.28 170.278-90.12 11.07-179.14 13.753-264.54 7.992-78.19-5.326-155.58-17.464-230.02-36.083-91.51-22.884-182.79-56.461-279.062-102.676-45.644-21.944-90.976-45.853-134.784-71.034l-7.355-4.212c-37.292-21.405-75.876-43.513-120.31-56.347-27.967-8.096-54.892-11.601-82.314-10.675-42.801 1.432-97.075 18.86-121.834 54.577-24 34.643-12.429 70.994 1.507 105.286 30.863 76.155 60.352 157.732 87.651 242.475 20.087 62.307 35.073 141.877-27.707 204.667-29.435 29.442-69.423 48.322-118.808 56.132-49.703 7.85-96.762 2.55-127.499-3.26l-36.621-7.48c-63.472-13.39-129.09-27.234-200.362-4.42-6.001 1.92-12.061 4.18-18.039 6.72-89.045 37.9-155.157 136.3-136.045 202.47" stroke="url(#O)" stroke-dasharray="0,0,2021.5581445312503,1218.1183691406247" class="B">
                <animate attributeType="XML" attributeName="stroke-dasharray" repeatCount="indefinite" dur="10s" values="0,0,2021.5581445312503,1218.1183691406247;            0,1218.1183691406247,2021.5581445312503,0;            2021.5581445312503,1218.1183691406247,0,0" keyTimes="0; 0.3759999999999999; 1"/>
            </path>
            <path d="M2293 520.019c-234.86 139.115-531.44 201.223-813.65 170.369-231.92-25.335-454.69-108.838-681.044-255.284l-6.449-4.161c-60.839-39.417-123.719-80.192-206.951-77.56-43.914 1.378-99.18 19.883-123.559 58.113-23.834 37.333-9.156 75.683 7.923 111.768 39.097 82.545 75.713 167.667 108.892 253.021 47.972 123.488 11.736 179.654-19.722 211.147-64.758 64.888-174.577 66.778-255.727 46.888-13.621-3.34-27.537-7.09-40.946-10.75-65.391-17.74-133.003-36.093-205.979-15.82-48.083 13.35-93.009 45.49-123.226 88.2-30.243 42.7-39.904 87.63-26.546 123.31" stroke="url(#P)" stroke-dasharray="0,0,2109.9507304687504,1271.3805683593746" class="B">
                <animate attributeType="XML" attributeName="stroke-dasharray" repeatCount="indefinite" dur="10s" values="0,0,2109.9507304687504,1271.3805683593746;            0,1271.3805683593746,2109.9507304687504,0;            2109.9507304687504,1271.3805683593746,0,0" keyTimes="0; 0.3759999999999999; 1"/>
            </path>
        </g>
    </g>
    <defs>
        <linearGradient id="A" x1="594.591" y1="-359.282" x2="1475.58" y2="147.942" xlink:href="#R">
            <stop stop-color="#70FF00"/>
            <stop offset=".49" stop-color="#70FF00" stop-opacity="0"/>
            <stop offset="1" stop-color="#70FF00"/>
        </linearGradient>
        <linearGradient id="B" x1="593.695" y1="-313.945" x2="1487.17" y2="225.916" xlink:href="#R">
            <stop stop-color="#70FF00"/>
            <stop offset=".49" stop-color="#70FF00" stop-opacity="0"/>
            <stop offset="1" stop-color="#70FF00"/>
        </linearGradient>
        <linearGradient id="C" x1="592.988" y1="-269.716" x2="1496.63" y2="303.153" xlink:href="#R">
            <stop stop-color="#70FF00"/>
            <stop offset=".49" stop-color="#70FF00" stop-opacity="0"/>
            <stop offset="1" stop-color="#70FF00"/>
        </linearGradient>
        <linearGradient id="D" x1="592.397" y1="-224.303" x2="1503.48" y2="382.953" xlink:href="#R">
            <stop stop-color="#70FF00"/>
            <stop offset=".49" stop-color="#70FF00" stop-opacity="0"/>
            <stop offset="1" stop-color="#70FF00"/>
        </linearGradient>
        <linearGradient id="E" x1="592.525" y1="-178.83" x2="1506.69" y2="461.943" xlink:href="#R">
            <stop stop-color="#70FF00"/>
            <stop offset=".49" stop-color="#70FF00" stop-opacity="0"/>
            <stop offset="1" stop-color="#70FF00"/>
        </linearGradient>
        <linearGradient id="F" x1="591.624" y1="-133.459" x2="1506.21" y2="541.488" xlink:href="#R">
            <stop stop-color="#70FF00"/>
            <stop offset=".49" stop-color="#70FF00" stop-opacity="0"/>
            <stop offset="1" stop-color="#70FF00"/>
        </linearGradient>
        <linearGradient id="G" x1="591.751" y1="-87.985" x2="1502.48" y2="620.483" xlink:href="#R">
            <stop stop-color="#70FF00"/>
            <stop offset=".49" stop-color="#70FF00" stop-opacity="0"/>
            <stop offset="1" stop-color="#70FF00"/>
        </linearGradient>
        <linearGradient id="H" x1="591.046" y1="-43.756" x2="1495.34" y2="698.184" xlink:href="#R">
            <stop stop-color="#70FF00"/>
            <stop offset=".49" stop-color="#70FF00" stop-opacity="0"/>
            <stop offset="1" stop-color="#70FF00"/>
        </linearGradient>
        <linearGradient id="I" x1="591.483" y1="1.759" x2="1484.49" y2="776.733" xlink:href="#R">
            <stop stop-color="#70FF00"/>
            <stop offset=".49" stop-color="#70FF00" stop-opacity="0"/>
            <stop offset="1" stop-color="#70FF00"/>
        </linearGradient>
        <linearGradient id="J" x1="590.589" y1="47.095" x2="1468.14" y2="853.942" xlink:href="#R">
            <stop stop-color="#70FF00"/>
            <stop offset=".49" stop-color="#70FF00" stop-opacity="0"/>
            <stop offset="1" stop-color="#70FF00"/>
        </linearGradient>
        <linearGradient id="K" x1="589.687" y1="92.466" x2="1448.13" y2="929.479" xlink:href="#R">
            <stop stop-color="#70FF00"/>
            <stop offset=".49" stop-color="#70FF00" stop-opacity="0"/>
            <stop offset="1" stop-color="#70FF00"/>
        </linearGradient>
        <linearGradient id="L" x1="588.986" y1="136.661" x2="1424.1" y2="1001.82" xlink:href="#R">
            <stop stop-color="#70FF00"/>
            <stop offset=".49" stop-color="#70FF00" stop-opacity="0"/>
            <stop offset="1" stop-color="#70FF00"/>
        </linearGradient>
        <linearGradient id="M" x1="587.067" y1="181.861" x2="1393.9" y2="1073.27" xlink:href="#R">
            <stop stop-color="#70FF00"/>
            <stop offset=".49" stop-color="#70FF00" stop-opacity="0"/>
            <stop offset="1" stop-color="#70FF00"/>
        </linearGradient>
        <linearGradient id="N" x1="584.428" y1="227" x2="1359.45" y2="1142.6" xlink:href="#R">
            <stop stop-color="#70FF00"/>
            <stop offset=".49" stop-color="#70FF00" stop-opacity="0"/>
            <stop offset="1" stop-color="#70FF00"/>
        </linearGradient>
        <linearGradient id="O" x1="581.485" y1="272.063" x2="1319.6" y2="1207.43" xlink:href="#R">
            <stop stop-color="#70FF00"/>
            <stop offset=".49" stop-color="#70FF00" stop-opacity="0"/>
            <stop offset="1" stop-color="#70FF00"/>
        </linearGradient>
        <linearGradient id="P" x1="575.577" y1="320.375" x2="1273.64" y2="1271.7" xlink:href="#R">
            <stop stop-color="#70FF00"/>
            <stop offset=".49" stop-color="#70FF00" stop-opacity="0"/>
            <stop offset="1" stop-color="#70FF00"/>
        </linearGradient>
        <clipPath id="Q">
            <rect width="1920" height="1271" fill="#fff" class="C">
                <animate attributeType="XML" attributeName="stroke-dasharray" repeatCount="indefinite" dur="10s" values="0,0,3982.368000000001,2399.631999999999;            0,2399.631999999999,3982.368000000001,0;            3982.368000000001,2399.631999999999,0,0" keyTimes="0; 0.3759999999999999; 1"/>
            </rect>
        </clipPath>
        <linearGradient id="R" gradientUnits="userSpaceOnUse"/>
    </defs>
    <setting>{"type":"loader","speed":5,"random":1,"shift":1,"size":1,"rupture":39}</setting>
</svg>